<?xml version="1.0" encoding="UTF-8"?>
<svg id="Layer_1" data-name="Layer 1" xmlns="http://www.w3.org/2000/svg" viewBox="0 0 2753.54 815.4">
  <g>
    <path class="cls-1" d="m59.64,241.27C15.23,230.97-9.86,184.01,3.66,137.03,38.4,10.26,214.72-24.48,336.33,16.06c72.69,25.74,95.86,77.86,85.56,124.83-12.87,54.69-72.07,102.95-155.08,95.23,8.37,54.05,43.13,231.01,116.47,227.14,29.61-1.92,41.83-31.52,25.11-45.68,25.09-25.09,64.32,2.57,47.61,39.26-12.22,27.66-52.75,36.67-79.79,34.1-109.4-12.23-142.84-174.38-161.5-264.47l-64.99,119.69c-8.37,16.08-9.65,32.81,5.15,32.81v8.37H51.27v-8.37c18.67-4.5,41.83-31.53,49.55-45.04L244.3,88.12l-21.87-.65.65-4.5,90.06-45.68C226.29-2.61,60.29,34.07,30.03,139.6c-10.92,39.89,10.94,67.57,36.68,70.78,18.02,2.57,34.11-3.86,39.26-23.16,3.87-13.51,0-30.89-12.22-36.67,28.94-30.89,67.57,1.92,59.83,37.96-9.65,45.68-55.33,61.77-93.93,52.76Zm173.74-45.04c64.97,22.52,120.32-15.44,133.19-61.77,11.57-41.18-10.3-73.35-45.05-92.66l-88.14,154.43Z"/>
    <path class="cls-1" d="m417.31,354.52c32.16,16.73,73.99-4.51,95.86-30.25l9.02,9.66c-33.46,44.39-83.01,57.91-118.4,48.26-48.9-16.09-48.25-72.07-29.61-110.67,31.53-64.35,113.25-120.97,178.24-97.81,30.89,14.79,43.11,49.54,17.37,87.51l-151.21,27.66c-20.59,36.03-16.09,57.91-1.28,65.63Zm111.3-110.67c8.37-10.93,25.74-46.97,7.09-55.34-28.96-14.16-92.03,54.7-101.03,73.35l93.93-18.02Z"/>
    <path class="cls-1" d="m694.57,187.22c23.81-18.02,45.7-23.16,63.07-18.02,93.93,25.1,5.77,204.62-98.45,216.84-25.74,3.22-52.75-3.21-60.5-25.74-12.22,18.67-23.79,24.46-48.25,24.46h-27.66v-6.45c14.79-3.85,27.04-23.16,33.46-33.46,50.83-88.15,101.68-175.66,152.51-264.46l-12.24,1.29.65-5.15,74.64-32.17,3.22,3.22-80.44,139.63Zm-15.44,34.75c-18.67,18.02-51.48,74.64-60.47,99.73-10.3,29.61,9,44.4,38.61,32.82,43.76-16.73,123.54-131.9,88.79-160.22-14.15-12.23-47.61,9-66.92,27.66Z"/>
    <path class="cls-1" d="m851.49,354.52c32.18,16.73,74.01-4.51,95.88-30.25l9.02,9.66c-33.46,44.39-83.01,57.91-118.4,48.26-48.9-16.09-48.28-72.07-29.61-110.67,31.53-64.35,113.25-120.97,178.24-97.81,30.89,14.79,43.11,49.54,17.37,87.51l-151.21,27.66c-20.59,36.03-16.09,57.91-1.3,65.63Zm111.32-110.67c8.37-10.93,25.74-46.97,7.07-55.34-28.94-14.16-92.01,54.7-101.01,73.35l93.93-18.02Z"/>
    <path class="cls-1" d="m1133.27,83.63v-5.15l73.37-33.46,3.22,3.85c-36.68,63.07-140.28,241.94-176.32,305.01-7.07,12.87-7.07,25.74,4.52,25.09v6.43h-77.22v-6.43c14.15-4.5,28.29-27.03,33.44-36.68l150.58-259.31-11.59.65Z"/>
    <path class="cls-1" d="m1509.66,110.64c12.85,3.22,23.14-8.36,24.44-22.52,4.5-30.89-16.09-45.04-38.61-43.76-25.09,1.29-52.13,19.3-53.4,53.4-2.57,46.98,34.74,98.45,66.27,149.93,8.37-15.44,18.02-32.81,30.89-45.68,10.94-11.59,25.09-19.31,42.48-19.31l1.28,5.8c-11.57,1.92-20.59,11.58-28.31,25.09-10.94,19.31-19.29,44.4-28.31,65.64,21.24,39.25,32.16,80.43,23.16,125.47-9,43.11-36.68,78.5-86.86,84.29v-5.79c37.96-13.51,54.05-41.82,55.98-73.35,1.92-27.03-5.8-55.34-19.29-80.44-17.39,25.74-39.26,43.12-70.14,49.55-59.2,11.58-124.84-27.03-119.05-98.45,2.57-43.76,40.53-93.93,98.45-111.31-10.3-25.74-14.82-50.19-10.94-72.07,10.3-54.05,56.62-77.85,97.81-74,34.76,3.22,65.64,27.04,64.99,70.79,0,30.89-24.46,63.05-54.7,59.84-46.98-5.15-44.4-66.92-7.07-72.07l1.28,1.94c-5.77,16.72.65,24.44,9.67,27.01Zm-92.66,77.86c-38.63,16.73-57.92,50.19-59.22,79.79-1.92,43.11,29.61,64.35,61.77,62.42,26.39-1.3,44.4-14.17,59.85-34.11-20.59-32.81-45.68-70.78-62.4-108.1Z"/>
    <path class="cls-1" d="m1824.16,241.27c-44.4-10.3-69.49-57.26-55.98-104.24,34.74-126.77,211.05-161.5,332.67-120.97,72.69,25.74,95.86,77.86,85.56,124.83-12.87,54.69-72.07,102.95-155.08,95.23,8.37,54.05,43.13,231.01,116.47,227.14,29.61-1.92,41.83-31.52,25.11-45.68,25.09-25.09,64.32,2.57,47.61,39.26-12.22,27.66-52.75,36.67-79.79,34.1-109.4-12.23-142.84-174.38-161.5-264.47l-64.99,119.69c-8.37,16.08-9.65,32.81,5.15,32.81v8.37h-103.6v-8.37c18.67-4.5,41.83-31.53,49.55-45.04l143.49-245.8-21.87-.65.65-4.5,90.06-45.68c-86.86-39.91-252.86-3.22-283.12,102.3-10.92,39.89,10.94,67.57,36.68,70.78,18.02,2.57,34.11-3.86,39.26-23.16,3.87-13.51,0-30.89-12.22-36.67,28.94-30.89,67.57,1.92,59.83,37.96-9.65,45.68-55.33,61.77-93.93,52.76Zm173.74-45.04c64.97,22.52,120.32-15.44,133.19-61.77,11.57-41.18-10.3-73.35-45.05-92.66l-88.14,154.43Z"/>
    <path class="cls-1" d="m2185.04,383.47c-60.47-10.93-54.68-81.71-34.74-124.82,23.16-49.55,84.29-108.75,144.13-86.23,53.4,20.59,40.53,89.45,19.29,128.69-24.44,45.69-73.34,93.31-128.69,82.36Zm5.15-19.94c33.46,8.37,71.42-50.83,84.94-75.29,10.94-20.59,44.4-88.15,9.02-101.02-38.61-12.87-79.16,52.76-93.31,79.79-11.59,20.59-36.68,86.22-.65,96.52Z"/>
    <path class="cls-1" d="m2451.4,315.91c-3.22-28.31-24.46-75.28-14.82-109.39,9.67-33.46,46.33-49.55,80.44-46.98,18.67.65,28.31,9.02,39.91,10.3,5.8,1.3,14.15.65,21.24-2.57l5.77,3.87-34.74,50.18-10.94-3.21c2.57-6.43,2.57-11.58.65-16.73-3.22-8.37-10.94-14.79-21.89-15.44-12.22-.65-25.74,5.15-32.16,15.44-16.09,23.81,5.8,73.35,10.3,99.73,11.57,56.62-36.68,95.88-94.6,93.31-96.51-3.86-79.77-133.19-9-131.91,25.74.65,45.68,24.46,23.16,54.05l-1.92-.64c-3.22-9.01-10.94-12.87-19.31-12.23-35.38,2.57-45.03,67.57,7.07,67.57,29.61.65,54.7-22.52,50.85-55.34Z"/>
    <path class="cls-1" d="m2587.08,354.52c32.18,16.73,74.01-4.51,95.88-30.25l9.02,9.66c-33.46,44.39-83.01,57.91-118.4,48.26-48.9-16.09-48.28-72.07-29.61-110.67,31.53-64.35,113.25-120.97,178.24-97.81,30.89,14.79,43.11,49.54,17.37,87.51l-151.21,27.66c-20.59,36.03-16.09,57.91-1.3,65.63Zm111.32-110.67c8.37-10.93,25.74-46.97,7.07-55.34-28.94-14.16-92.01,54.7-101.01,73.35l93.93-18.02Z"/>
  </g>
  <g>
    <path class="cls-1" d="m391.01,810.77c-.71-.36-1.08-.71-1.43-1.42-.35-.71-.35-1.43-.35-1.78,0-.71.35-1.42.69-1.77.37-.71.37-1.43.71-2.13.37-.71,1.08-1.07,1.43-1.78s.35-1.42.71-2.13c0-.71,0-1.42.35-2.13,0-.71.37-1.43.71-2.14,0-.7,0-1.42.37-2.13v-2.49c.35-.71,0-1.42,0-2.13s.35-1.43.35-2.13v-8.89c0-1.07.37-1.07.37-2.13v-2.14c0-1.06-.37-1.06-.37-2.13v-1.77c0-1.07.37-1.07.37-2.14s-.37-1.06-.37-2.13.37-1.06.37-2.13-.37-1.07-.37-2.13v-8.53c0-1.07.37-1.07.37-2.14v-4.26c0-1.07-.37-1.07-.37-2.13v-6.4c0-1.07.37-1.07.37-2.13s-.37-1.07-.37-2.14v-4.26c0-1.07.37-1.07.37-2.13s-.37-1.07-.37-2.14v-2.13c0-1.07.37-1.07.37-2.13s-.37-1.07-.37-2.13v-4.27c0-1.06.37-1.06.37-2.13s-.37-1.07-.37-2.13.37-1.07.37-2.14-.37-1.06-.37-2.13v-2.13c0-1.07.37-1.07.37-2.13s-.37-1.07-.37-2.14v-14.92c0-1.07.37-1.07.37-2.14v-4.26c0-1.07-.37-1.07-.37-2.13v-2.14c0-1.06.37-1.06.37-2.13s-.37-1.07-.37-2.13v-23.11c0-1.07.37-1.07.37-2.13s-.37-1.07-.37-2.14.37-1.06.37-2.13-.37-1.06-.37-2.13v-4.26c0-1.07.37-1.07.37-2.14s-.37-1.06-.37-2.13v-4.62c0-.71,0-1.43-.35-2.14,0-.7.35-1.42.35-2.13s-.35-1.42-.35-2.13v-2.49c-.37-.71-.37-1.43-.71-2.14,0-.7,0-1.42-.37-2.13,0-.7-.35-1.42-.71-2.13,0-.71-.35-1.07-.69-1.77l-1.08-2.14c0-.7-.35-1.42-.71-2.13-.35-.36-.69-1.07-.69-1.77,0-.36,0-1.07.35-1.78.35-.35.71-1.06,1.43-1.42.35-.36,1.06,0,1.77,0s1.43-.36,2.14-.36h37.68c.71,0,1.43-.36,2.14-.36s1.41.36,2.12.36h10.66c.71.36,1.43.36,2.14.36h4.26c.71,0,1.43.36,2.14.36s1.43,0,2.12.36h2.14c.71.36,1.43.36,2.14.36.71.35,1.41.35,2.12.35.71.36,1.08.36,1.8.71.69,0,1.41.36,2.12.36.71.36,1.43.36,2.14.71.71,0,1.41.36,2.12.36.71.35,1.43.7,2.14.7.35.36,1.06.71,1.77.71.71.36,1.43.36,2.14.71.71.36,1.43.71,1.77,1.07.71,0,1.43.35,2.14.7.69.36,1.41.36,1.77.71l2.12,1.07c.37.35,1.08,1.06,1.8,1.42l1.41,1.43c.71.36,1.43.7,1.8,1.06.69.71,1.06,1.07,1.77,1.43.35.7,1.06,1.06,1.41,1.42.71.71,1.08,1.07,1.43,1.78l1.43,1.42c.35.71,1.06,1.07,1.43,1.77.35.71.71,1.07,1.06,1.78.37.71,1.06,1.07,1.43,1.77.35.71.35,1.43.71,1.78l1.06,2.13c.35.71.35,1.42.71,2.13,0,.36.35,1.07.71,1.77.35.71.35,1.43.35,2.14l1.06,2.13c0,.71,0,1.42.37,2.13v2.14c.35.35.35,1.06.35,1.77s.37,1.42.37,2.13.35,1.43.35,2.13-.35,1.43-.35,2.14.35,1.42.35,2.13v2.13c0,1.07-.35,1.43-.35,2.13v2.5c0,.7-.37,1.06-.37,1.77s0,1.42-.35,2.13c0,.71-.37,1.43-.37,2.13s-.35,1.43-.69,2.14c0,.7,0,1.42-.37,2.13-.35.71-.71,1.42-1.06,1.77,0,.71-.37,1.43-.71,2.13,0,.71-.35,1.43-.71,2.14-.35.36-.35,1.42-.71,1.77l-1.06,2.13c-.35.36-.71,1.07-1.06,1.78-.37.36-1.08,1.06-1.43,1.77-.37.36-.37,1.07-.71,1.77-.71.71-1.06,1.07-1.43,1.78-.35.36-.71,1.07-1.43,1.77-.35.36-.69,1.07-1.41,1.43-.37.7-.71,1.06-1.08,1.77-.69.36-1.06,1.07-1.77,1.43-.35.7-.71,1.42-1.06,1.77-.35.71-.35,1.42-.35,2.49.35.71.35,1.43.69,2.13.37.36.71,1.07,1.43,1.43.71.36,1.06,1.06,1.77,1.42.37.36,1.08.71,1.43,1.43.71.36,1.06,1.07,1.43,1.42.35.71,1.06.71,1.77,1.43.35.36.71,1.06,1.06,1.77.71.36,1.08,1.07,1.43,1.43.37.71,1.06,1.06,1.43,1.77.35.36,1.06.71,1.43,1.43.35.35.69,1.42,1.06,1.77.35.71,1.06,1.07,1.43,1.77.35.36.69,1.07,1.06,1.78.35.7.71,1.06,1.06,1.77.37.71.71,1.07,1.08,1.78,0,.7.35,1.42.69,2.13,0,.36.71,1.06.71,1.77.37.71.71,1.07,1.08,1.78.35.7.35,1.42.71,2.13.35.7.35,1.42.69,1.77,0,.71.37,1.43.71,2.13,0,.71.37,1.43.71,2.14,0,.7.37,1.06.37,1.77s0,1.43.35,2.13c0,.71.35,1.43.35,2.13.37.71,0,1.43,0,2.14.37.71.71,1.42.71,2.13v2.13c0,.71.37,1.43.37,2.14,0,.35-.37,1.06-.37,1.77v6.4c-.35.7-.35,1.42-.35,2.13v2.13c-.37.71-.37,1.43-.71,2.13,0,.71,0,1.43-.35,2.14,0,.7-.37,1.42-.37,2.13-.35.71-.35,1.06-.71,1.77-.35.71-.35,1.43-.71,2.14,0,.7-.35,1.42-.35,2.13-.35.7-.71,1.06-1.06,1.77-.37.71-.37,1.43-.71,2.13-.37.71-.71,1.07-1.08,1.78-.35.7-.69,1.42-1.06,1.77-.35.71-.35,1.43-.71,2.13-.35.71-.71,1.07-1.43,1.78-.35.36-.69,1.06-1.06,1.42l-1.06,2.14c-.37.35-1.06.7-1.43,1.42-.35.71-.71,1.07-1.43,1.77-.35.36-.69,1.07-1.41,1.43-.37.71-1.08,1.07-1.43,1.42-.37.71-1.06,1.07-1.43,1.43-.71.71-1.43,1.06-1.77,1.42-.71.36-1.06.71-1.77,1.43-.37.36-1.08.71-1.77,1.07-.37.35-.71,1.06-1.43,1.42l-2.14,1.07c-.35.35-1.06.7-1.43,1.06l-2.12,1.07c-.37.36-1.08.71-1.77,1.07-.71,0-1.43.35-2.14.7-.35.36-1.06.71-1.77,1.07s-1.43.36-2.14.36c-.35.36-1.06.7-1.77.7-.71.36-1.43.36-2.14.71-.71.36-1.41.36-2.12.71-.37,0-1.08.36-1.77.71-.71,0-1.43,0-2.14.36-.71,0-1.43.36-2.14.36-.71.35-1.41.35-2.12.35h-2.14c-.71.36-1.43.71-2.14.71h-2.12c-.71,0-1.43.36-2.14.36h-6.03c-1.08,0-1.08.36-2.14.36h-4.26c-1.06,0-1.06-.36-2.14-.36h-2.12c-1.08,0-1.08.36-2.14.36h-2.14c-1.06,0-1.06-.36-2.12-.36h-35.9q-1.08,0-2.14.36v-.36c-.71,0-1.43,0-1.77-.36Zm75.38-158.56v-2.13c-.37-.71,0-1.43-.37-2.14,0-.7,0-1.42-.35-2.13,0-.71-.71-1.06-.71-1.77-.37-.71-.37-1.43-.71-2.14-.37-.7-.71-1.06-1.06-1.77-.37-.71-.71-1.06-1.43-1.77-.37-.36-.71-1.07-1.08-1.43-.69-.71-1.41-1.06-1.77-1.42-.71-.36-1.06-.71-1.77-1.07s-1.43-.36-2.12-.71c-.71-.35-1.43-.7-1.8-.7-.71-.36-1.41-.36-2.12-.36-.71-.36-1.43-.36-2.14-.36h-2.14s-1.06-.36-2.12-.36h-3.91c-.35,0-1.06.36-1.77.71-.71,0-1.43.36-2.14.71-.35.7-1.06,1.06-1.06,1.77-.37.71-.37,1.42-.37,2.13v11.02c0,1.07.37,1.07.37,2.14s-.37,1.06-.37,2.13v23.46c0,1.07.37,1.07.37,2.14s-.37,1.06-.37,2.13v4.27c0,.7.37,1.42.71,1.77,0,.71.37,1.06.71,1.77l1.06,1.07c.71.36,1.08.71,1.8.71.71.36,1.06.36,1.77.36s1.06-.71,1.77-.71q.71-.71,1.77-1.43,1.08-.36,2.14-1.06c.71-.36.71-.71,1.77-1.07.71-.71,1.06-.71,1.77-1.42.71-.36,1.43-.71,1.77-1.07.71-.36,1.08-.71,1.8-1.07.35-.71,1.06-1.06,1.41-1.42.71-.71,1.08-1.07,1.8-1.43.35-.7.69-1.42,1.06-1.77.35-.71,1.06-1.07,1.43-1.78.35-.35.69-1.06,1.06-1.42.71-.71.71-1.42,1.06-2.13.37-.36.71-1.07,1.08-1.78.35-.7.35-1.42.69-2.13.37-.36.37-1.06.71-1.77.37-.71.37-1.43.71-2.14,0-.7.37-1.06.37-1.77.35-.71.35-1.42.35-2.13.37-.71.37-1.43.37-2.13s0-1.43.35-2.14v-2.13c0-.71-.35-1.42-.35-2.13Zm-12.09,68.62l-2.14,1.06c-.35.71-1.43.71-1.77,1.07-.71.36-1.43,1.07-2.14,1.43-.35.35-1.06,1.06-1.77,1.42-.35.36-1.43.36-1.77.71-.71.7-1.43,1.06-2.14,1.42s-1.06.71-1.77,1.07l-2.14,1.07c-.71,0-1.06.7-1.77,1.06-.35.36-.71,1.07-1.06,1.77-.37.71,0,1.43,0,2.14s-.37.71-.37,1.77.37,1.07.37,2.13v1.78c0,1.06-.37,1.06-.37,2.13v6.05c0,1.06.37,1.06.37,2.13s-.37,1.07-.37,2.13v14.22c0,1.07.37,1.07.37,2.14s-.37,1.06-.37,2.13c0,.71,0,1.42.37,2.13.35.71.71,1.07,1.06,1.78l2.14,1.06c.35,0,1.06.36,1.77.36h6.75c.71,0,1.43-.36,2.14-.36.71-.36,1.43-.36,1.77-.36.71-.36,1.43-.7,2.14-.7.71-.36,1.43-.36,2.12-.71.71-.36,1.08-1.07,1.8-1.43.69-.36,1.41-.71,1.77-1.06.71-.36,1.41-.71,1.77-1.07.71-.71,1.06-1.07,1.43-1.77.71-.36,1.06-1.07,1.41-1.78l1.43-1.42c.37-.71,1.08-1.07,1.43-1.78l1.06-2.13c0-.36.37-1.07.71-1.77.37-.71.37-1.43.71-2.13,0-.71.35-1.43.71-2.14,0-.71.35-1.06.71-1.77v-2.13c.35-.71.35-1.43.71-2.14v-2.13c.35-.71.35-1.42.35-2.13v-4.62c0-.71-.35-1.43-.35-2.14-.37-.71-.37-1.42-.37-2.13-.35-.71,0-1.42-.35-2.13,0-.71-.37-1.43-.71-2.14,0-.7-.37-1.06-.71-1.77,0-.71-.35-1.42-.71-2.13-.35-.71-.71-1.43-1.06-1.78l-1.06-2.13c-.37-.36-.71-1.06-1.08-1.77-.71-.36-1.06-1.07-1.43-1.43-.35-.7-1.06-1.06-1.77-1.42-.35-.71-1.06-1.07-1.77-1.43-.71-.35-1.43-.35-2.14-.35l-2.12,1.06c-.71.36-1.43.71-1.77,1.07Z"/>
    <path class="cls-1" d="m560.89,810.77c-.37-.36-.71-1.06-1.08-1.42-.35-.71-.69-1.43-.69-1.78,0-.71.35-1.42.69-1.77l1.08-2.13c.35-.36.71-1.43.71-2.14.35-.36,1.06-1.06,1.06-1.77.35-.71.35-1.42.35-2.13.37-.71.37-1.43.37-2.14.35-.7.35-1.42.35-2.49.37-.7.37-1.42.37-2.13s.35-1.42.35-2.13v-4.27c0-.7.37-1.42.37-2.13v-6.75c0-1.07-.37-1.07-.37-2.14v-3.9c0-1.07.37-1.07.37-2.14v-4.26c0-1.07-.37-1.07-.37-2.13s.37-1.07.37-2.14v-12.79c0-1.07-.37-1.07-.37-2.13s.37-1.07.37-2.14v-2.13c0-1.07-.37-1.07-.37-2.13s.37-1.07.37-2.13-.37-1.07-.37-2.14.37-1.06.37-2.13-.37-1.06-.37-2.13.37-1.07.37-2.13-.37-1.07-.37-2.14.37-1.06.37-2.13v-10.66c0-1.07-.37-1.07-.37-2.13s.37-1.07.37-2.14v-21.33c0-1.07-.37-1.07-.37-2.13s.37-1.07.37-2.14v-4.26c0-1.07-.37-1.07-.37-2.13v-4.27c0-1.07.37-1.07.37-2.13v-2.13c0-1.07-.37-1.07-.37-2.14v-2.13c0-1.06.37-1.06.37-2.13v-3.91c0-1.06-.37-1.06-.37-2.13s.37-1.07.37-2.13-.37-1.07-.37-2.13v-2.14c0-1.06.37-1.06.37-2.13s-.37-1.07-.37-2.13.37-1.07.37-2.14-.37-1.06-.37-2.13v-2.13c0-1.07.37-1.07.37-2.13s-.37-1.07-.37-2.13.37-1.07.37-2.14-.37-1.06-.37-2.13c0-.71.37-1.42.37-2.49,0-.71-.37-1.43-.37-2.13s.37-1.43.37-2.14c-.37-.7-.37-1.42-.71-2.13,0-.71.35-1.42,0-2.13,0-.71,0-1.43-.37-2.13v-2.5c-.35-.7-.35-1.42-.35-2.13-.37-.7-.71-1.42-.71-2.13-.37-.71-.37-1.43-.71-2.13-.35-.36-.71-1.07-1.06-1.78-.37-.7-.37-1.42-1.08-2.13-.35-.36-.35-1.07-.35-1.77-.35-.36,0-1.07.35-1.78,0-.35.71-1.06,1.08-1.06.71-.36,1.41-.71,1.77-.71h38.39c.71,0,1.43.36,2.14.36s1.43-.36,2.12-.36h29.87c.71,0,1.43.36,2.14.36s1.43-.36,2.12-.36h6.4c.71-.36,1.43-.36,2.14-.36h2.14c.69-.36,1.06-.71,1.77-.71s1.41,0,2.12-.36c.71,0,1.43-.35,2.14,0,.71,0,1.43.36,2.14.71.71.36,1.06.71,1.41,1.43.37.36.71,1.06,1.08,1.77,0,.71.35,1.43.35,2.13.37.71.37,1.43.71,2.14,0,.7.35,1.42.35,2.13s.37,1.42.37,2.13c.35.71.35,1.43.35,2.13.37.71.37,1.43.37,2.14.35.7.35,1.42.71,2.13,0,.71,0,1.42.35,2.13,0,.36.35,1.07.35,1.77.37.71.71,1.43.71,2.14s.37,1.42.71,2.13c0,.71,0,1.42.37,2.13,0,.71,0,1.43.35,2.14,0,.7,0,1.42.37,2.13,0,.7.35,1.42.69,2.13,0,.71,0,1.43.37,2.13v1.78c-.37.35-.71,1.06-1.06,1.42-.71.36-1.43.36-2.14.36-.37,0-1.06-.36-1.77-.71-.37-.36-1.08-.71-1.77-1.06-.71,0-1.43-.36-2.14-.71-.35-.36-1.06-.36-1.77-.71-.71,0-1.43-.36-2.14-.36-.71-.36-1.43-.7-2.14-.7-.69-.36-1.41-.36-2.12-.36-.37,0-1.06-.36-1.77-.36s-1.43-.36-2.14-.36h-6.4c-.71,0-1.43-.36-2.12-.36s-1.43.36-2.14.36c-1.06,0-1.06-.36-2.14-.36s-1.06.36-2.12.36h-2.14c-1.06,0-1.06-.36-2.14-.36s-1.06.36-2.12.36h-6.4c-1.06,0-1.06-.36-2.14-.36s-1.06.36-2.12.36-1.08-.36-2.14-.36-1.06.36-2.14.36c-.69,0-1.41,0-2.12.36-.71,0-1.08.71-1.77,1.06-.37.36-.71,1.07-1.08,1.78-.35.36-.35,1.06-.35,1.77v14.58c0,1.07-.37,1.07-.37,2.13s.37,1.07.37,2.14v14.57c0,1.07-.37,1.07-.37,2.14s.37,1.06.37,2.13c0,.71,0,1.42.35,1.77.37.71.71,1.43,1.08,1.78.69.36,1.06,1.06,1.77,1.06.71.36,1.43.71,2.12.71h16.01c.71,0,1.43-.36,2.14-.36h2.12c.71-.36,1.43-.36,2.14-.36,1.06-.36,1.77-.36,2.49-.36.71-.35,1.43-.35,2.14-.35.71-.36,1.41-.36,2.12-.71.71,0,1.43-.71,1.77-1.07.71,0,1.43-.36,2.14-.71s1.43-.36,2.14-1.06c.35-.36,1.06-.71,1.77-.71.35,0,1.06.36,1.77.71.37.36,1.06.7,1.43,1.06.35.71.35,1.43.35,2.14v37.68c0,.71-.35,1.43-.71,1.78-.35.71-.35,1.42-1.06,1.42-.71.36-1.43.71-1.77.71-.71,0-1.43-.36-2.14-.71-.35-.36-1.06-.7-1.77-1.06s-1.06-.71-1.77-1.07-1.43-.36-2.14-.71c-.71,0-1.41-.36-2.12-.71-.71,0-1.43,0-2.14-.35-.71,0-1.43,0-2.49-.36-.71,0-1.43-.36-2.14-.36h-4.26c-.71,0-1.43,0-2.12-.36-.71,0-1.43.36-2.14.36s-1.77-.36-2.49-.36h-9.26c-.69,0-1.41,0-2.12.36-.71.36-1.08,1.06-1.77,1.42-.37.36-.71,1.07-1.08,1.78-.35.36-.35,1.06-.35,1.77,0,1.07-.37,1.07-.37,2.13s.37,1.07.37,2.14v6.39c0,1.43-.37,1.43-.37,2.49s.37,1.07.37,2.14v2.13c0,1.07-.37,1.07-.37,2.13s.37,1.07.37,2.14v6.39c0,1.07-.37,1.07-.37,2.13s.37,1.07.37,2.14v10.66c0,1.07-.37,1.07-.37,2.13s.37,1.07.37,2.49v2.14c0,1.06-.37,1.06-.37,2.13,0,.71.37,1.42.71,1.77.37.71.71,1.43,1.08,1.78.69.36,1.06,1.06,1.77,1.42.71,0,1.43.36,2.12.36h4.28c1.06,0,1.06-.36,2.12-.36.71,0,.71.36,1.77.36h2.14c1.06,0,1.06-.36,2.14-.36h2.12c1.08,0,1.08.36,2.14.36h4.26c1.08,0,1.08-.36,2.14-.36h6.4c.71,0,1.41.36,2.12.36.71-.36,1.43-.36,2.14-.36s1.43-.36,2.14-.36h2.12c.71-.36,1.43-.36,2.14-.36.35,0,1.06-.35,1.77-.35.71-.36,1.43-.36,2.14-.71.71,0,1.41,0,2.12-.36.71-.36,1.43-.36,2.14-.71.71,0,1.06-.71,1.77-1.07.71,0,1.06-.35,1.77-.7s1.43-.71,1.77-.71c.71,0,1.43.36,2.14.71.37,0,.71.7.71,1.42.35.36.35,1.07.35,1.43-.35.71-.35,1.42-.69,2.13,0,.71-.37,1.42-.37,2.13-.35.71-.35,1.43-.71,2.14,0,.7,0,1.42-.35,2.13,0,.7-.37,1.42-.37,2.13-.35.71-.35,1.43-.35,2.13-.37.71-.37,1.43-.37,2.13-.35.71-.35,1.43-.35,2.14-.35.71-.35,1.42-.71,2.13,0,.71-.35,1.42-.35,2.13s-.37,1.07-.37,1.78c-.35.7-.71,1.42-.71,2.13-.35.71-.35,1.42-.35,2.13-.35.71-.35,1.43-.71,2.13,0,.71-.35,1.43-.35,2.14s-.37,1.42-.37,2.13c-.35.71-.35,1.42-.71,2.13-.35.36-1.06,1.07-1.77,1.43-.35.35-1.43.7-2.12.7s-1.43-.36-2.14-.36c-.71-.35-1.06-.35-1.77-.35-.71-.36-1.43-.36-2.14-.36s-1.43-.36-2.12-.36h-2.14c-.71,0-1.43-.36-2.14-.36h-10.66c-.71,0-1.43,0-2.14.36-.69,0-1.06-.36-1.77-.36h-2.12c-.71,0-1.43.36-2.14.36s-1.43-.36-2.14-.36h-59.72c-.37,0-1.06,0-1.77-.36Z"/>
    <path class="cls-1" d="m745.34,597.81h60.09c.71,0,1.43,0,1.77.36.71.36,1.06,1.07,1.43,1.42.71.71.71,1.43,1.06,1.78,0,.7,0,1.42-.35,1.77-.37.71-.71,1.43-.71,2.13-.37.71-.71,1.43-.71,2.14v2.13c-.35.71-.35,1.42-.35,2.13v6.4c0,.71,0,1.42.35,2.49v2.13c0,.71.35,1.43.35,2.13s.37,1.43.71,2.14c0,.71,0,1.42.37,2.13,0,1.07-.37,1.07,0,2.13.35,1.07.35.71.71,1.78.35,1.06,0,1.06.35,2.13q0,1.06.37,2.13c0,1.07.35,1.07.35,2.13.35,1.07,0,1.07.35,2.14l.71,2.13v2.13q.37,1.07.37,2.13.35,1.07.35,2.14l.71,2.13q0,1.06.35,2.13c0,.71.37.71.37,1.78q.35,1.06.35,2.13.37,1.06.37,2.13l.71,2.13q0,1.07.35,2.13,0,1.07.35,2.14c0,1.06.37,1.06.37,2.13q.35,1.07.35,2.13.37,1.07.37,2.14c.35,1.06,0,1.06.35,2.13,0,1.06.37.7.37,1.77q.35,1.07.35,2.13l.71,2.14q.35,1.06.35,2.13c.37,1.07,0,1.07,0,2.13l.71,2.13q0,1.07.37,2.14c.35,1.06,0,1.06.35,2.13,0,1.06.37,1.06.37,2.13.35,1.07.35.71.71,1.78v2.13l.69,2.13c0,1.07.37,1.07.37,2.13.35,1.07,0,1.07.35,2.13q0,1.07.37,2.14c0,1.06.35,1.06.35,2.13l.71,2.13v2.14l.71,2.13c.35.7,0,1.06,0,2.13.35,1.07.35.71.71,1.77.35,1.07,0,1.07.35,2.14,0,1.06.37,1.06.37,2.13q.35,1.07.35,2.13l.71,2.13v2.14l.71,2.13q0,1.06.35,2.13v2.13l.71,2.14q0,.7.37,1.77,0,1.07.35,2.13c0,1.07.35,1.07.35,2.13q.37,1.07.37,2.14l.71,2.13q0,1.07.35,2.13t.37,2.14c.35,1.06,0,1.06.35,2.13,0,1.06.37,1.06.37,1.77l.69,2.13c0,1.07-.35,1.07,0,2.14q.37,1.06.37,2.13l.71,2.13v2.13c.35,1.07.71,1.07.71,2.14q.35,1.06.35,2.13c.35,1.06,0,1.06.35,2.13,0,1.07.37,1.07.37,2.13.35,1.07.35.71.71,1.78q0,1.06.35,2.13v2.13c.37.71.37,1.43.71,2.13,0,.71,0,1.43.35,2.14,0,.71.37,1.42.37,2.13.35.71.35,1.42.35,2.13.37.71.71,1.43.71,1.78l1.08,2.13c0,.71.35,1.42.69,2.13,0,.36.37,1.43.37,1.78l1.06,2.13c.37.7.71,1.06,1.08,1.77.69.36,1.06,1.07,1.41,1.78.37.35.71,1.06,1.08,1.77.35.36,1.06,1.06,1.06,1.42,0,.71,0,1.43-.37,2.14,0,.36-.35,1.06-.69,1.42-.71.36-1.43.36-1.8.36h-18.84c-.71,0-1.43.36-2.12.36s-1.43-.36-2.14-.36h-20.98c-.71,0-1.43-.36-1.77-.71-.71-.36-1.06-.7-1.77-1.06-.37-.71-.71-1.07-.71-1.78-.37-.71,0-1.42.35-2.13,0-.36.37-1.07.71-1.77.37-.71.37-1.43.37-2.14.35-.7.35-1.42.35-2.13.37-.71.37-1.42.37-2.13.35-.71,0-1.43,0-2.13s.35-1.43,0-2.14v-2.13c0-.71-.37-1.42-.37-2.13s-.35-1.43-.35-2.13,0-1.43-.37-2.5v-2.13c0-.7-.35-1.42-.35-2.13q-.37-.71-.37-1.77l-.71-2.14v-1.77l-.69-2.13c0-1.07.35-1.07,0-1.78,0-1.06-.71-1.77-1.08-2.49-.35-.71-1.06-1.06-2.12-1.42-.71-.36-1.43-.71-2.14-.71h-22.75c-1.06,0-1.06.36-2.14.36s-1.06-.36-2.12-.36-1.08.36-2.14.36h-1.77c-1.06,0-1.06-.36-2.14-.36s-1.77.36-2.49.71-1.41.7-2.12,1.42c-.37.71-.71,1.43-.71,2.49-.37.71,0,.71-.37,1.78q0,1.06-.35,2.13,0,1.07-.37,1.77,0,1.07-.35,2.14c0,1.06-.35,1.06-.35,1.77s-.37,1.43-.37,2.13-.35,1.43-.35,2.13,0,1.78-.37,2.5v2.13c-.35.71-.35,1.42-.35,2.13s-.37,1.43-.37,2.13v2.14c0,.7.37,1.42.37,2.13v2.13c.35.71,0,1.43.35,2.13,0,.71.37,1.43.37,2.14l1.06,2.13c0,.36.35,1.06.35,1.77-.35.71-.35,1.07-.69,1.78-.71.7-1.08.7-1.8,1.06s-1.06.71-1.77.71h-25.24c-.71,0-1.43.36-2.12.36s-1.43-.36-2.14-.36h-10.32c-.71,0-1.43.36-2.12.36s-1.43-.36-2.14-.36-1.06-.36-1.43-.71c-.71,0-1.06-.7-1.06-1.06-.37-.71-.37-1.43-.37-2.14,0-.36.37-1.06.71-1.77.71-.36,1.08-.71,1.43-1.42.35-.71.71-1.43,1.06-1.78.37-.71,1.08-1.07,1.43-1.77.37-.71.37-1.43.71-2.13,0-.71.71-1.07.71-1.78.35-.71.71-1.42.71-2.13.35-.71.35-1.43.71-2.13,0-.71.35-1.07.71-1.78,0-.71,0-1.42.35-2.13,0-.71.35-1.42.35-2.13.37-.71.71-1.43.71-2.14.37-.7.37-1.42.37-2.13.35-.7.35-1.42.35-2.13.37-1.07,0-1.07.37-2.13q0-1.07.35-2.13.35-.71.71-1.78,0-1.07.35-2.13c.37-1.07,0-1.07.37-2.13q0-1.07.35-2.14c0-1.06.37-1.06.37-2.13l.69-2.13q0-1.07.37-2.13,0-1.07.35-2.14v-2.13q.37-1.07.71-1.77v-2.13l.71-2.14c0-1.06.37-1.06.37-2.13q.35-1.07.35-2.13c.35-1.07,0-1.07.35-2.14q.37-1.06.37-2.13.35-1.06.35-2.13l.71-2.13c0-1.07.37-1.07.37-1.78.35-1.06,0-1.42.35-2.13,0-1.07.37-1.07.37-2.13l.69-2.13q0-1.07.37-2.14v-2.13l.71-2.13v-2.13c.35-1.07.71-1.07.71-2.14q.35-1.06.35-2.13c.35-1.07,0-1.07.35-2.13q0-1.07.37-1.77.35-1.07.35-2.14l.71-2.13q0-1.07.37-2.13,0-1.07.35-2.14v-2.13c.35-1.06.71-1.06.71-2.13.35-1.07,0-1.07.35-2.13q.37-1.07.37-2.13c.35-1.07.35-.71.71-1.78q0-1.07.35-2.13v-2.13l.71-2.14c.35-1.06,0-1.06.35-2.13,0-1.06.37-1.06.37-2.13.35-1.07,0-1.07.35-2.13,0-1.07.37-1.07.37-2.14q.35-1.06.35-2.13l.71-2.13v-2.13q.37-.71.71-1.78,0-1.06.35-2.13c0-1.07.37-1.07.37-2.13q.35-1.07.35-2.14l.71-2.13q0-1.06.37-2.13v-2.13c.35-1.07.69-1.07.69-2.13.37-1.07,0-1.07.37-2.14,0-1.06.35-.71.35-1.77q.37-1.07.37-2.13c.35-1.07,0-1.07.35-2.14,0-1.06.37-1.06.71-2.13q0-1.06.35-2.13v-2.13l.71-2.14c.37-1.06,0-1.06.37-2.13.35-1.07,0-1.07.35-2.13q0-1.07.37-2.13c0-.71.35-.71.35-1.78q.37-1.06.37-2.13c0-.71.35-1.42.35-2.13.35-.71.35-1.43.35-2.14s.37-1.42.37-2.13.35-1.42.35-2.13c0-1.07.37-1.77.37-2.13v-6.76c0-.71-.37-1.42-.37-2.13s0-1.43-.35-2.13c0-.71,0-1.43-.37-2.14,0-.7-.69-1.42-.69-1.77-.37-.71-.37-1.43-.37-2.13,0-.36.37-1.07.71-1.78.35-.35.71-1.06,1.43-1.42s1.43-.36,2.12-.36h2.14Zm14.92,129.76c.37.71.71,1.43,1.08,1.78.71.71,1.41,1.06,2.12,1.42s1.43.36,2.14.36c1.06,0,1.06.36,2.14.36h15.27c.71,0,1.43-.36,2.14-.71s1.43-.7,1.77-1.42c.71-.36.71-1.07,1.08-1.78,0-.7.35-1.77,0-2.49v-2.13l-.71-2.13c0-1.07-.37-1.07-.37-2.13q-.35-1.07-.35-2.14-.37-1.06-.37-2.13c-.35-1.07,0-1.07-.35-2.13q0-1.07-.37-2.14c0-1.06-.35-1.06-.35-2.13-.35-1.06,0-1.06-.35-2.13q0-1.07-.37-2.13c0-1.07,0-1.43-.35-2.49,0-1.07-.37-.71-.37-2.14q-.35-1.06-.35-2.13l-.71-2.13v-2.13q-.37-1.07-.37-2.14l-.69-2.13q0-1.07-.37-2.13v-2.13q-.35-1.07-.35-2.14c0-1.06-.37-1.06-.37-2.13s0-1.06-.35-2.13c0-1.07-.37-1.07-.37-2.13v-2.14c0-1.06-.35-1.06-.35-2.13q-.35-1.07-.35-2.13c-.37-1.07,0-1.07-.37-2.13q0-1.07-.35-2.14c0-1.06-.37-1.06-.37-2.13-.35-1.06,0-1.06,0-2.13q-.35-1.07-.35-2.13-.37-1.07-.37-2.14c0-1.06-.35-1.06-.69-2.13v-2.13q0-1.07-.37-2.13,0-1.07-.35-2.14c0-.7-.71-1.42-1.8-1.42-.69,0-1.41.71-1.77,1.42v2.14q-.35,1.06-.35,2.13-.37,1.06-.37,2.13-.35,1.07-.35,2.13-.37,1.07-.37,2.14c-.35,1.06,0,1.06-.35,2.13,0,1.07-.35,1.07-.35,2.13v2.13l-.71,2.14v2.13c-.37,1.06,0,1.06-.37,2.13,0,1.07-.35,1.07-.35,2.13-.37,1.07,0,1.07-.37,2.14v2.13l-.69,2.13v2.13c-.37,1.07,0,1.07-.37,2.14q0,1.06-.35,2.13c0,1.06-.37,1.06-.37,2.13s0,1.07-.35,2.13q0,1.07-.37,2.14,0,1.06-.35,2.13,0,1.07-.35,2.13c0,1.07-.37,1.07-.37,2.13l-.71,2.14v2.49l-.71,2.13v2.13c-.35,1.07,0,1.07-.35,2.13,0,1.07-.37,1.07-.37,2.14l-.69,2.13v2.13l-.71,2.14q0,1.06-.37,2.13v2.13l-.71,2.13v2.49Z"/>
    <path class="cls-1" d="m888.91,626.61c0-.71-.37-1.43-.37-2.13v-4.27c0-.71-.35-1.42-.35-2.13-.37-.71-.37-1.43-.37-2.13,0-1.07,0-1.78-.35-2.5,0-.7-.37-1.42-.37-2.13-.35-.7-.35-1.42-.35-2.13-.35-.71-.71-1.43-.71-2.13-.35-.36-.71-1.07-1.06-1.78-.37-.7-.71-1.42-1.06-1.77-.37-.71-.71-1.43-.71-2.13,0-.36.35-1.07.71-1.78l1.06-1.06c.71-.36,1.06-.71,1.77-.71h44.79c.71,0,1.06,0,1.77.36l1.43,1.42c.37.71,0,1.43,0,1.78,0,.7,0,1.42-.35,1.77l-1.08,2.13c-.35.71-.35,1.43-.71,2.14-.35.7-.69,1.06-.69,1.77l-1.08,2.13c0,.71,0,1.43-.35,2.13,0,.71-.37,1.43-.37,2.5v2.13c-.35.71,0,1.42,0,2.13-.35.71-.69,1.43-.69,2.13s.35,1.43.35,2.14-.35,1.42-.35,2.13c0,1.07.35,1.77.35,2.49v4.27c0,1.06-.35,1.06-.35,2.13s.35,1.06.35,2.13v2.13c0,1.07-.35,1.07-.35,2.13v4.27c0,1.07.35,1.07.35,2.13v2.14c0,1.06-.35,1.06-.35,2.13s.35,1.06.35,2.13-.35,1.07-.35,2.13v6.4c0,1.07.35,1.07.35,2.13s-.35,1.07-.35,2.14v2.13c0,1.06.35,1.06.35,2.13s-.35,1.07-.35,2.13v12.8c0,1.06.35,1.06.35,2.13s-.35,1.07-.35,2.13v4.27c0,1.06.35,1.06.35,2.13v2.13c0,1.07-.35,1.07-.35,2.14v10.66c0,1.06.35,1.06.35,2.13s-.35,1.07-.35,2.13v6.4c0,1.07.35,1.07.35,2.13s-.35,1.07-.35,2.13v19.21c0,1.06.35,1.06.35,2.13v2.13c0,1.07-.35,1.07-.35,2.14v8.52c0,.71,0,1.43.35,2.14,0,.71,0,1.42.35,2.13,0,.71,0,1.42.37,1.77,0,.71.35,1.43.71,2.14,0,.7.35,1.42.71,2.13.35.71.35,1.06.69,1.77.71.71,1.08,1.07,1.43,1.78.37.7.71,1.06,1.43,1.77.35.36,1.06.71,1.77,1.07l1.43,1.42c.71.36,1.43.71,2.14.71.69.36,1.06,1.07,1.77,1.07.71.35,1.41.35,2.12.7.71,0,1.43,0,2.14.36h2.14c.71,0,1.41.36,2.12.36s1.43-.36,2.14-.36c.71-.36,1.43-.36,2.12-.36.71-.36,1.43-.36,1.8-.7.71-.36,1.41-.36,2.12-.71.71-.36,1.08-.71,1.8-1.07.69-.71,1.06-1.07,1.77-1.42.35-.36,1.06-.71,1.77-1.07.35-.71,1.06-1.07,1.43-1.77.35-.36.69-1.07,1.06-1.78.35-.71.71-1.06,1.06-1.77.37-.71.71-1.43.71-2.13.37-.71.71-1.07.71-1.78.35-.71.35-1.42.35-2.13s.37-1.42.37-2.13v-8.53c0-1.07.35-1.07.35-2.13s-.35-1.07-.35-2.14v-6.4c0-1.06.35-1.06.35-2.13s-.35-1.06-.35-2.13v-2.13c0-1.07.35-1.07.35-2.13s-.35-1.07-.35-2.14.35-1.06.35-2.13v-2.13c0-1.07-.35-1.07-.35-2.14s.35-1.06.35-2.13-.35-1.06-.35-2.13.35-1.07.35-2.13-.35-1.07-.35-2.13v-4.27c0-1.07.35-1.07.35-2.13s-.35-1.07-.35-2.14.35-1.06.35-2.13-.35-1.06-.35-2.13v-4.26c0-1.07.35-1.07.35-2.14s-.35-1.06-.35-2.13v-4.27c0-1.06.35-1.06.35-2.13s-.35-1.06-.35-2.13v-4.26c0-1.07.35-1.07.35-2.14v-2.13c0-1.07-.35-1.07-.35-2.13v-8.53c0-1.07.35-1.07.35-2.13s-.35-1.07-.35-2.14v-12.79c0-1.07.35-1.07.35-2.13s-.35-1.07-.35-2.14v-2.13c0-1.07.35-1.07.35-2.13s-.35-1.07-.35-2.14v-4.26c0-1.07.35-1.07.35-2.13s-.35-1.07-.35-2.13v-11.03c0-.7-.37-1.42-.37-2.13v-4.62c-.35-.71-.35-1.43-.69-2.14,0-.7-.37-1.42-.37-2.13-.35-.7-.35-1.42-.71-2.13,0-.71-.35-1.43-.35-2.13-.37-.71-.71-1.07-1.08-1.78-.35-.7-.69-1.42-1.41-1.77-.37-.71-.37-1.43-.37-2.13,0-.36,0-1.07.37-1.78.35-.35.71-.7,1.41-1.06.71-.36,1.08-.71,1.8-.71h17.07c.71,0,1.41.36,2.12.36s1.43-.36,2.14-.36h21.33c.71,0,1.43.36,2.14.36.35,0,1.06,0,1.77.36l1.06,1.06c.37.71.71,1.43.71,1.78,0,.7-.35,1.42-.71,1.77-.71.71-1.06,1.43-1.06,2.13-.35.71-.71,1.43-.71,2.14-.35.7-.71,1.06-1.06,1.77-.37.71-.37,1.43-.71,2.13,0,.71-.37,1.43-.37,2.13v2.5c-.35.7-.35,1.42-.35,2.13-.35.71-.35,1.42-.35,2.13s-.37,1.43-.37,2.13v13.16c0,1.06.37,1.06.37,2.13s-.37,1.07-.37,2.13.37,1.07.37,2.13v2.14c0,1.06-.37,1.06-.37,2.13v6.4c0,1.06.37,1.06.37,2.13s-.37,1.07-.37,2.13v8.53c0,1.07.37,1.07.37,2.14s-.37,1.06-.37,2.13v8.53c0,1.06.37,1.06.37,2.13v2.13c0,1.07-.37,1.07-.37,2.14v10.66c0,1.06.37,1.06.37,2.13s-.37,1.07-.37,2.13v3.91c0,1.06.37,1.06.37,2.13s-.37,1.07-.37,2.13v2.14c0,1.06.37,1.06.37,2.13s-.37,1.07-.37,2.13v4.27c0,1.06.37,1.06.37,2.13s-.37,1.06-.37,2.13v4.27c0,1.06.37,1.06.37,2.13s-.37,1.07-.37,2.13v4.63c0,.7.37,1.42.37,2.13s-.37,1.42,0,2.13v13.15c.35.71.35,1.43.35,2.14.35.7,0,1.42,0,2.13.35.71.35,1.42.71,2.13,0,.71,0,1.43.35,2.13,0,.71.37,1.43.37,2.14.35.7.35,1.42.71,2.13.35.71.71,1.06,1.06,1.77l1.06,2.14c.37.35.71,1.06.71,1.77,0,.36-.35,1.06-.35,1.77-.37.71-.71,1.43-1.08,1.78l-1.06,2.13c-.35.71-.71,1.06-1.06,1.77-.37.71-.71,1.07-1.08,1.78-.35.7-.69,1.06-1.06,1.77-.35.71-.71,1.07-1.06,1.77-.37.71-.71,1.43-1.43,1.78-.35.71-.71,1.06-1.06,1.77-.71.36-.71,1.07-1.43,1.77-.35.36-.71,1.07-1.43,1.43-.35.71-1.06,1.07-1.41,1.43-.37.7-.71,1.42-1.43,1.77l-1.43,1.42c-.35.71-1.06,1.07-1.77,1.43-.37.71-.71,1.07-1.43,1.42-.71.36-1.06,1.07-1.77,1.43-.35.36-1.06.71-1.43,1.42-.71.36-1.43.36-2.12.71-.71.36-1.08,1.07-1.8,1.43-.35.36-1.06.7-1.77,1.06-.35.36-1.06,1.07-1.77,1.43-.35.36-1.06.36-1.77.7l-2.14,1.07c-.35,0-1.06.36-1.77.71s-1.06.71-1.77,1.07c-.71.35-1.43.35-2.14.35l-2.12,1.07c-.37.36-1.43.36-1.8.36l-2.12,1.06h-2.14c-.71.36-1.43.36-2.14.71-.69,0-1.41.36-2.12.36-.71.36-1.43.36-2.14.36-.35,0-1.06.36-1.77.36-.71.36-1.43.36-2.14.36s-1.41.36-2.12.36h-2.14c-.71,0-1.43,0-2.12.36h-2.14c-.71,0-1.43-.36-2.14-.36h-4.26c-.71,0-1.43-.36-2.14-.36s-1.41-.36-2.12-.36-1.43,0-2.14-.36c-.71,0-1.43,0-2.12-.36-.71,0-1.43,0-2.14-.36-.71,0-1.06-.36-1.77-.71-.71,0-1.43,0-2.14-.35-.71,0-1.43-.36-2.12-.71-.71,0-1.43-.36-2.14-.71-.71,0-1.06-.36-1.77-.36l-2.14-1.06c-.71-.36-1.43-.36-2.14-.36-.35-.36-1.06-1.07-1.77-1.43s-1.41-.36-1.77-.71l-2.14-1.06c-.35-.36-1.06-.36-1.77-.71-.71-.36-1.06-1.06-1.77-1.42-.35-.36-1.06-.71-1.77-1.43-.37-.36-1.06-.71-1.43-1.07-.71-.35-1.43-.7-1.77-1.42-.71-.36-1.06-.71-1.77-1.07-.71-.7-1.43-.7-1.77-1.42-.71-.36-1.08-1.07-1.43-1.43-.71-.36-1.08-.7-1.77-1.42-.37-.36-.71-1.07-1.43-1.43-.37-.7-.71-1.42-1.06-1.77-.71-.71-1.08-1.07-1.43-1.77l-1.43-1.43c-.35-.71-.71-1.06-1.06-1.77-.71-.71-1.08-1.07-1.43-1.78-.35-.36-.71-1.06-1.06-1.77-.37-.71-.71-1.07-1.08-1.77-.71-.71-.71-1.07-1.06-1.78s-.71-1.42-1.06-1.77l-1.08-2.13c-.35-.36-.69-1.07-.69-1.78-.37-.71-.71-1.42-.71-1.77,0-.71.35-1.43.71-1.77l1.06-2.14c.35-.36.35-1.06.71-1.77.35-.71.35-1.43.71-2.13.35-.71.35-1.43.69-2.14,0-.7.37-1.42.37-2.13.35-.71.35-1.42.35-2.13s0-1.43.37-2.13v-2.14c.35-.7,0-1.42.35-2.13v-6.76c0-.7.37-1.42.37-2.13s-.37-1.42-.37-2.13.37-1.43.37-2.13v-2.13c0-.71-.37-1.43-.37-2.5v-2.13c0-1.06.37-1.06.37-2.13s-.37-1.07-.37-1.78c0-1.06.37-1.06.37-2.13v-2.13c0-1.07-.37-1.07-.37-2.13v-10.67c0-1.06.37-1.06.37-2.13v-8.53c0-1.06-.37-1.06-.37-2.13v-6.4c0-1.06.37-1.06.37-2.13v-2.13c0-1.07-.37-1.07-.37-2.13v-2.14c0-1.06.37-1.06.37-2.13s-.37-1.07-.37-2.13v-4.27c0-1.06.37-1.06.37-2.13s-.37-1.07-.37-2.13.37-1.07.37-2.13-.37-1.07-.37-2.14v-4.26c0-1.07.37-1.07.37-2.14s-.37-1.06-.37-2.13.37-1.06.37-2.13-.37-1.07-.37-2.13v-2.13c0-1.07.37-1.07.37-2.14v-2.13c0-1.07-.37-1.07-.37-2.13v-6.4c0-1.07.37-1.07.37-2.13v-2.13c0-1.07-.37-1.07-.37-2.14s.37-1.06.37-2.13v-2.49Z"/>
    <path class="cls-1" d="m1148,597.81h6.4c.71.36,1.43.36,2.12,0h2.14c.71,0,1.43,0,1.77-.36h2.14c.71,0,1.43.36,2.14,0,.69,0,1.41-.36,2.12-.36s1.43,0,2.14-.36c.71,0,1.43,0,2.12-.36.71,0,1.43-.35,2.14,0,.71,0,1.43,0,1.77.71.71.36,1.43.71,1.77,1.43.37.36.71,1.06,1.08,1.77,0,.71,0,1.43.35,2.13,0,.71,0,1.43.37,2.14,0,.7.35,1.42.35,2.13.35.71.35,1.42.71,2.13,0,.71,0,1.43.35,2.13,0,.71.37,1.43.37,2.14s.35,1.42.35,2.13c.37.71.37,1.42.71,1.77,0,.71.37,1.43.37,2.13.35.71.69,1.43.69,2.14s.37,1.42.37,2.13c.35.71,0,1.42.35,2.13,0,.71,0,1.43.37,2.14,0,.7.35,1.42.71,2.13,0,.7,0,1.42.35,2.13,0,.71.37,1.43.37,2.13.35.36,0,1.07,0,1.78-.37.35-.37,1.06-1.08,1.42-.35.36-1.06.36-1.77.36s-1.43-.36-1.77-.71c-.71-.36-1.43-.71-1.77-1.06-.71-.36-1.43-.71-2.14-.71-.71-.36-1.43-.71-1.77-.71-.71-.36-1.43-.36-2.14-.71-.71,0-1.43-.35-2.12-.35-.71-.36-1.43,0-2.14-.36-.71,0-1.43-.36-2.14-.36s-1.41-.36-2.12-.36h-8.54c-.35,0-1.06-.36-1.77-.36h-2.49c-1.06,0-1.06.36-2.14.36h-2.12c-.71,0-1.43-.36-2.14,0-.71.36-1.43.71-1.77,1.42-.37.36-.71,1.07-1.06,1.78-.37.7-.37,1.06-.37,1.77v2.13c0,1.07-.35,1.07-.35,2.14s.35,1.06.35,2.13v12.79c0,1.07-.35,1.07-.35,2.14s.35,1.06.35,2.13v17.07c0,1.07-.35,1.07-.35,2.13s.35,1.07.35,2.13v2.14c0,1.06-.35,1.06-.35,2.13s.35,1.06.35,2.13-.35,1.07-.35,2.13v2.14c0,1.06.35,1.06.35,2.13v10.66c0,1.07-.35,1.07-.35,2.13s.35,1.07.35,2.14v8.53c0,1.06-.35,1.06-.35,2.13v2.13c0,1.07.35,1.07.35,2.13v10.67c0,1.06-.35,1.06-.35,2.13v4.26c0,1.07.35,1.07.35,2.14s-.35,1.06-.35,2.13.35,1.07.35,2.13-.35,1.07-.35,2.13.35,1.07.35,2.14v2.13c0,1.06-.35,1.06-.35,2.13s.35,1.07.35,2.13v29.87c.37.71.37,1.42.37,2.13s.35,1.78.35,2.49,0,1.43.35,2.13c0,.71,0,1.43.37,2.14,0,.71.35,1.42.71,2.13,0,.71.35,1.42.71,2.13.35.71.35,1.43.69,1.78.37.7.71,1.42,1.43,1.77.37.71.37,1.42.37,2.13,0,.36,0,1.07-.37,1.78-.35.7-.71,1.06-1.43,1.42-.35.36-1.06.36-1.77.36h-44.79c-.35,0-1.06-.36-1.77-.71-.35,0-.71-.7-1.06-1.06-.37-.71-.71-1.43-.71-1.78,0-.71.35-1.42.71-1.77l1.06-2.13c.35-.71.71-1.07,1.06-1.78.37-.71.37-1.42.71-2.13,0-.71.37-1.42.71-2.13v-2.14c.35-.7.71-1.42.71-2.13s.35-1.42.35-2.49v-2.13c.37-.71.37-1.43.37-2.13v-25.6c0-1.07-.37-1.07-.37-2.14s.37-1.06.37-2.13v-8.53c0-1.06-.37-1.06-.37-2.13s.37-1.07.37-2.13v-2.14c0-1.06-.37-1.06-.37-2.13s.37-1.07.37-2.13v-6.4c0-1.06-.37-1.06-.37-2.13v-2.13c0-1.07.37-1.07.37-2.14v-2.13c0-1.07-.37-1.07-.37-2.13s.37-1.07.37-2.13-.37-1.07-.37-2.14.37-1.06.37-2.13v-4.26c0-1.07-.37-1.07-.37-2.14s.37-1.06.37-2.13v-10.66c0-1.07-.37-1.07-.37-2.13s.37-1.07.37-2.14v-4.26c0-1.07-.37-1.07-.37-2.13s.37-1.07.37-2.14-.37-1.06-.37-2.13.37-1.06.37-2.13v-2.13c0-1.07-.37-1.07-.37-2.14v-2.13c0-1.07.37-1.07.37-2.13v-17.07c0-1.07-.37-1.07-.37-2.13s.37-1.07.37-2.14v-6.39c0-1.07-.37-1.07-.37-2.14s.37-1.06.37-2.13c0-.71-.37-1.42-.37-1.77-.35-.71-.71-1.43-1.41-1.78-.37-.7-1.08-1.06-1.8-1.06-.35-.36-1.06-.36-1.77-.36-1.06,0-1.06-.36-2.49-.36h-2.12c-1.08,0-1.08.36-2.14.36-.71,0-1.43-.36-2.14-.36h-2.12c-.71,0-1.43.36-2.14.36h-4.26c-.71,0-1.43.36-2.14.36-.71.36-1.43,0-2.12.36-.71,0-1.43,0-1.8.36-.69,0-1.41.35-2.12.35-.71.36-1.43.71-2.14.71-.71.36-1.43.36-2.14.71-.69,0-1.06.71-1.77.71-.71.35-1.06.7-1.77,1.06s-1.43.36-1.77.71c-.71,0-1.43-.36-1.77-.71-.71-.36-1.08-.71-1.08-1.06-.35-.71-.35-1.07-.35-1.78.35-.7.35-1.42.71-2.13,0-.71,0-1.43.35-2.13,0-.71.37-1.43.37-2.13.35-.71.35-1.43.71-2.14,0-.71,0-1.42.35-2.13,0-.71.37-1.42.37-2.13s.35-1.43.35-2.14c.35-.7.35-1.42.71-2.13,0-.7.35-1.06.35-1.77.37-.71.37-1.43.37-2.13.35-.71.35-1.43.35-2.14.37-.7.37-1.42.71-2.13,0-.71,0-1.42.35-2.13,0-.71.37-1.43.71-2.13,0-.71,0-1.43.37-2.14,0-.7,0-1.42.35-2.13,0-.71.71-1.42,1.06-1.77.37-.71.71-1.43,1.43-1.78.71-.36,1.43-.7,2.14-.7s1.43,0,2.14.35c.69,0,1.41.36,1.77.36.71.36,1.41.36,2.12.36.71.36,1.43.36,2.14.36.71.36,1.43,0,2.14,0s1.41.36,2.12.36h32.01c1.06,0,1.06.36,2.12.36s1.08-.36,2.14-.36h30.22Z"/>
    <path class="cls-1" d="m1265.97,810.77c-.37-.36-.71-1.06-1.08-1.42-.35-.71-.35-1.43-.35-1.78,0-.71,0-1.42.35-1.77l1.08-2.13c.35-.71.69-1.07,1.06-1.78.35-.71.35-1.42.71-2.13.35-.71.35-1.42.35-2.13.37-.71.37-1.43.71-2.14,0-.7.37-1.42.37-2.13v-2.49c.35-.71.35-1.42.35-2.13s.35-1.43.35-2.13v-23.82c0-1.07-.35-1.07-.35-2.13s.35-1.07.35-2.13v-12.45c0-1.07-.35-1.07-.35-2.13s.35-1.07.35-2.14v-8.53c0-.7-.35-1.42-.35-2.13l-.71-2.13q-.35-1.07-.71-1.78l-.71-2.13c-.35-1.06-.71-1.06-1.06-1.77l-.71-2.13-.71-2.14c-.35-1.06,0-1.06-.35-2.13q-.37-.71-.71-1.77c-.37-1.07-.71-1.07-1.06-2.13q-.37-.71-.71-1.78l-.71-2.13-.71-2.13q-.35-.71-.71-1.78l-.71-2.13q-.35-1.07-.71-1.77l-.69-2.14-.71-2.13-.71-2.13q-.37-.71-.71-1.78l-.71-2.13c-.35-1.06-.35-.7-.71-1.77-.35-1.07-.71-1.07-1.06-2.13-.37-1.07,0-1.07-.37-2.14-.35-1.06-.35-.7-1.06-1.77-.35-1.07,0-1.07-.35-2.13-.37-1.07-.71-1.07-1.08-1.78l-.71-2.13-.69-2.13c-.37-.71,0-1.07-.37-1.77-.35-1.07-.71-1.07-1.06-2.14-.37-1.06,0-1.06-.37-2.13-.35-1.07-.69-.71-1.06-1.77-.35-1.07,0-1.07-.35-2.14-.37-1.06-.71-1.06-1.08-1.77-.35-1.07,0-1.07-.35-2.13q-.71-1.07-1.06-2.14t-.71-1.77l-.71-2.13-.71-2.13c-.37-.71-.37-1.07-.71-1.78l-.71-2.13-.71-2.13q-.35-.71-.71-1.78l-.69-2.13q-.37-1.07-.71-1.77l-.71-2.13-.71-2.14q-.35-1.06-.71-1.77l-.71-2.13c-.35-1.07-.71-1.07-1.06-2.14q-.37-.7-.71-1.77c0-.71-.35-1.42-.35-2.13-.37-.71-.71-1.07-.71-1.78-.37-.7-.71-1.42-.71-2.13-.37-.71-.71-1.06-1.08-1.77,0-.71-.35-1.43-.69-2.14-.37-.35-.37-1.06-.71-1.77-.37-.71-.71-1.06-1.08-1.77,0-.71-.35-1.43-.69-2.14-.37-.35-.71-1.06-1.08-1.77-.35-.36-.71-1.06-1.06-1.42-.35-.71-.71-1.43-1.06-1.78-.37-.71-.71-1.42-1.08-1.77l-1.41-1.43c-.71-.7-1.08-1.06-1.8-1.42-.35-.36-.71-1.07-1.06-1.78-.35-.7-.35-1.42,0-2.13.35-.7.71-1.42,1.43-1.77.71,0,1.43-.36,2.12-.36h26.32c.71,0,1.43.36,2.12.36s1.43-.36,2.14-.36h13.15c1.08.36,1.77.71,2.14,1.43.71.35,1.06,1.06,1.06,1.77v2.49c-.35.36-.35,1.07-.35,2.13-.37.71-.37,1.43-.37,2.13s.37,1.43.37,2.14,0,1.42.35,2.13c0,.71,0,1.42.37,2.13,0,.71.35,1.43.71,2.14,0,.7,0,1.42.35,2.13,0,.7.35,1.42.71,2.13.35.71.35,1.43.35,2.13.37.71.71,1.43.71,2.13l1.06,2.14c0,.71,0,1.42.37,2.13.35,1.07.71.71,1.06,1.77q0,1.07.37,2.14l.69,2.13.71,2.13c.37,1.07,0,1.07.37,2.13l.71,2.14c.35,1.06,0,1.06.35,2.13.37,1.07.71.71,1.06,1.77,0,1.07.37,1.07.37,2.13l.71,2.14.71,2.13.71,2.13c.35.71.35,1.07.35,1.78l.71,2.13.71,2.13q.35,1.07.35,2.13c.37,1.07.71,1.07,1.06,2.14.37,1.06,0,1.06.37,2.13l.71,2.13q.35.71.71,1.77c.35,1.07,0,1.07.35,2.14.35,1.06.71,1.06.71,2.13l.71,2.13.71,2.14c.35,1.06.35.7.71,1.77.35.71.69,1.42,1.41,1.42,1.08,0,1.8-.36,1.8-1.06l.69-2.13.71-2.14q0-1.06.37-2.13l.71-2.13.69-2.14c.37-1.06,0-1.06.37-2.13.35-1.06.71-.7,1.06-1.77.37-1.07,0-1.07.37-2.13l.69-2.14q.37-1.06.37-2.13c.35-1.07.71-1.07,1.06-2.13q.37-1.07.71-1.77c0-1.07,0-1.43.37-2.14l.69-2.13q.37-1.07.37-2.13c.35-1.07.71-1.07.71-2.14l.71-2.13q.35-.7.71-1.77l.69-2.13q.37-1.07.37-2.14l.71-2.13.71-2.13.69-2.13c.37-.71,0-1.07.37-2.14q.35-1.06.71-1.77l1.06-2.13c0-.71,0-1.43.35-2.14.37-.7.71-1.42.71-2.13.37-.7.37-1.42.71-2.13.37-.71.71-1.43.71-2.13.37-.71.37-1.43.37-2.13.35-.71.69-1.43.69-2.14s.37-1.42.37-2.13c.35-.71.35-1.42.71-2.13v-2.14c0-.7-.37-1.42-.37-2.13v-2.49c-.35-.71-.35-1.42-.35-2.13s.35-1.43,1.06-1.77c.37-.71,1.08-.71,1.77-1.07.71-.36,1.43-.36,2.49-.36h4.28c.71,0,1.41.36,2.12.36s1.43-.36,2.14-.36h6.75c.71,0,1.43.36,2.14.36s1.43-.36,2.14-.36h6.75c.71,0,1.43.36,2.12.36s1.43-.36,2.14-.36h11.03c.71,0,1.41,0,2.12.36.71.36,1.08,1.07,1.43,1.77.35.36.35,1.43,0,2.13-.35.71-.71,1.43-1.06,1.78-.71.36-1.43.71-1.77,1.07-.71.7-1.08,1.06-1.43,1.77l-1.43,1.42c-.35.71-.71,1.43-1.06,1.78-.37.71-.71,1.42-.71,1.77-.37.71-1.08,1.43-1.08,1.77l-1.06,2.14c-.35.36-.71,1.06-.71,1.77-.35.71-.35,1.43-.71,2.13-.35.36-.69,1.07-1.06,1.78-.35.71-.35,1.42-.71,1.77,0,.71-.35,1.43-.35,2.13-.37.71-.71,1.43-1.06,1.78,0,.71-.37,1.42-.37,2.13-.35,1.07-.71.71-1.06,1.77l-.71,2.14-.71,2.13q-.35.71-.71,1.77l-.71,2.14q-.35,1.06-.71,1.77l-.71,2.13-.69,2.13c-.37,1.07-.37.71-1.08,1.78l-.71,2.13c-.35,1.07,0,1.07-.35,2.13q-.35,1.07-.71,1.78l-.71,2.13-.71,2.13c-.35.71-.69.71-1.06,1.77l-.71,2.14c-.35.71,0,1.06-.35,1.77-.37,1.07-.71,1.07-1.08,2.13-.35,1.07,0,1.07-.35,2.14q-.35,1.06-.71,1.77c-.35,1.07-.71,1.07-1.06,2.13q-.37,1.07-.71,1.78c-.37,1.06,0,1.06-.71,2.13l-.71,2.13-.71,2.13c-.35.71,0,.71-.35,1.78q-.71,1.06-1.06,2.13c-.37.71-.37,1.07-.71,1.77l-.71,2.14-.71,2.13c-.35.71-.35,1.07-.71,1.77l-.71,2.13q-.35,1.07-.71,1.78l-.71,2.13-.69,2.13q-.37,1.07-.71,1.78c-.37,1.06-.71,1.06-1.08,2.13l-.71,2.13c-.35.71,0,1.07-.35,1.78l-.71,2.13c-.35,1.06-.71,1.06-1.06,2.13q-.37.71-.71,1.78c-.35,1.06,0,1.06-.35,2.13-.37,1.06-.71,1.06-1.08,1.77l-.71,2.13-.69,2.14c-.37,1.06-.37.7-.71,1.77l-.71,2.13-.71,2.13q-.37,1.07-.71,1.78l-.71,2.13c-.35.71-.35,1.43-.35,2.13v46.58c0,1.07-.37,1.77,0,2.49v2.13c0,.71.35,1.43.35,2.14s-.35,1.42-.35,2.13.35,1.42.35,2.13c0,1.07.37,1.43.37,2.13.35,1.07,0,1.78,0,2.49.35.71.69,1.43.69,2.14.37.71.37,1.42.71,2.13.37.71.37,1.42.71,2.13.37.71.71,1.07,1.08,1.78.35.7.35,1.42.69,2.13.71.36.71,1.06.71,1.77,0,.36,0,1.07-.35,1.78-.37.36-.71,1.06-1.43,1.42-.35.36-1.06.36-1.77.36h-6.75c-1.08,0-1.08.36-2.14.36s-1.06-.36-2.14-.36h-13.5c-1.08,0-1.08.36-2.14.36s-1.06-.36-2.14-.36h-15.64c-.71,0-1.43,0-2.12-.36Z"/>
    <path class="cls-1" d="m1507.6,810.77c-.37-.36-1.08-.71-1.08-1.42-.35-.71-.69-1.43-.69-1.78.35-.71.35-1.42.69-1.77.71-.71.71-1.43,1.08-2.13.35-.71.71-1.07,1.06-1.78.37-.71.71-1.42.71-2.13.35-.71.35-1.42.71-2.13,0-.71.35-1.43.35-2.14.37-.7,0-1.42.37-2.13,0-.7,0-1.77.35-2.49v-4.26c.37-.71,0-1.43,0-2.14s.37-1.42.37-2.13v-4.62c0-1.07-.37-1.07-.37-2.13v-2.14c0-1.06.37-1.06.37-2.13s-.37-1.07-.37-1.77c0-1.07.37-1.07.37-2.14v-17.07c0-1.06-.37-1.06-.37-2.13s.37-1.06.37-2.13v-19.2c0-1.07-.37-1.07-.37-2.14s.37-1.06.37-2.13v-10.66c0-1.07-.37-1.07-.37-2.13s.37-1.07.37-2.14v-8.53c0-1.06-.37-1.06-.37-2.13s.37-1.06.37-2.13v-19.2c0-1.07-.37-1.07-.37-2.14s.37-1.06.37-2.13v-2.13c0-1.07-.37-1.07-.37-2.13s.37-1.07.37-2.14v-2.13c0-1.06-.37-1.06-.37-2.13s.37-1.07.37-1.78v-8.52c0-1.07-.37-1.07-.37-2.14s.37-1.06.37-2.13v-23.82c0-.7,0-1.42-.37-2.13,0-.71-.35-1.42-.35-2.13s.35-1.77,0-2.49c0-.71-.37-1.43-.37-2.14s-.35-1.42-.71-2.13c0-.7-.35-1.42-.35-2.13-.35-.71-.35-1.43-.71-2.13-.35-.71-.71-1.07-1.06-1.78-.37-.7-.37-1.42-.71-2.13-.37-.36-1.06-1.07-1.06-1.77,0-.36.35-1.07.69-1.78,0-.35.71-1.06,1.08-1.42.71-.36,1.43-.36,2.12-.36h18.86c.69,0,1.41.36,2.12.36s1.43-.36,2.14-.36,1.43.36,2.12.36,1.43-.36,2.14-.36h17.07c.71,0,1.43.36,1.77.71.71.36,1.08.36,1.43,1.06.35.71.35,1.43.35,1.78,0,.7-.35,1.42-.69,1.77l-1.08,2.13c-.35.71-.71,1.07-.71,1.78l-1.06,2.13v2.13c-.35.71-.71,1.43-.71,2.13-.35.71-.35,1.43-.71,2.14v4.62c0,.71-.35,1.43-.35,2.13v4.27c-.37,1.07,0,1.77,0,2.49v2.13c0,.71-.37.71-.37,1.78s.37,1.06.37,2.13-.37,1.06-.37,2.13.37,1.07.37,2.13v2.14c0,1.06-.37,1.06-.37,2.13s.37,1.07.37,2.13v3.91c0,1.06-.37,1.06-.37,2.13s.37,1.07.37,2.13-.37,1.07-.37,2.14.37,1.06.37,2.13v12.44c0,1.07-.37,1.07-.37,2.14s.37,1.06.37,2.13c0,.71,0,1.42.35,2.13.37.36.71,1.07,1.08,1.43.71.7,1.06,1.06,1.77,1.42s1.43.36,2.12.36h14.95c1.06,0,1.06-.36,2.12-.36s1.08.36,2.14.36h2.49c1.06,0,1.06-.36,2.14-.36s1.06.36,2.12.36,1.08-.36,2.14-.36,1.06.36,2.14.36c.71,0,1.41-.36,2.12-.36.37-.36,1.08-.71,1.43-1.42.71-.36,1.06-1.07,1.43-1.43.35-.71.35-1.42.35-2.13v-2.13c0-1.07-.35-1.07-.35-2.14s.35-1.06.35-2.13v-12.44c0-1.07-.35-1.07-.35-2.14s.35-1.06.35-2.13v-3.91c0-1.06-.35-1.06-.35-2.13s.35-1.06.35-2.13-.35-1.07-.35-2.13v-2.14c0-1.06.35-1.06.35-2.13v-2.13c0-1.07-.35-1.07-.35-2.13,0-.71.35-.71.35-1.78v-6.75c0-.71-.35-1.43-.35-2.14v-2.13c0-.71-.37-1.42-.37-2.13v-2.13c0-1.07-.35-1.78-.35-2.5-.37-.7-.37-1.42-.71-2.13,0-.7,0-1.42-.35-2.13,0-.71-.71-1.07-.71-1.77l-1.08-2.14c-.35-.7-.69-1.42-1.06-1.77-.35-.71-.35-1.43-.71-2.13,0-.36.37-1.07.71-1.78.37-.35.71-.7,1.43-1.06.35-.36,1.06-.71,1.77-.71h6.03c.71,0,1.43.36,2.14.36h2.14c.71,0,1.41-.36,2.12-.36h32.01c.71,0,1.41.36,1.77.71.71.36,1.06.71,1.43,1.06,0,.71.35,1.43.35,1.78,0,.7,0,1.42-.35,2.13-.71.36-1.08,1.07-1.43,1.77-.37.71-.71,1.43-.71,1.78l-1.06,2.13c0,.71,0,1.43-.37,2.13,0,.71-.35,1.43-.35,2.13-.37.71-.37,1.43-.37,2.5,0,.7,0,1.42-.35,2.13,0,.71-.35,1.42-.35,2.13s.35,1.43.35,2.13,0,1.43-.35,2.14v34.13c0,1.06-.37,1.06-.37,2.13s.37,1.07.37,2.13v4.27c0,1.06-.37,1.06-.37,2.13v2.13c0,1.07.37,1.07.37,2.13v25.6c0,1.07-.37,1.07-.37,2.14v2.13c0,1.06.37,1.06.37,2.13v14.93c0,1.06-.37,1.06-.37,2.13s.37,1.07.37,2.13v2.14c0,1.06-.37,1.06-.37,2.13s.37,1.07.37,2.13-.37,1.07-.37,2.13.37,1.07.37,2.14v4.26c0,1.07-.37,1.07-.37,2.13s.37,1.07.37,2.14v4.26c0,1.07-.37,1.07-.37,2.13s.37,1.07.37,2.14v4.26c0,1.07-.37,1.07-.37,2.13s.37,1.07.37,2.14v1.77c0,1.07-.37,1.07-.37,2.13s.37,1.07.37,2.13v8.54c0,1.06-.37,1.06-.37,2.13s.37,1.06.37,2.13v8.89c0,.71.35,1.42.35,2.13.35.71,0,1.78,0,2.49.35.71.71,1.43.71,2.13s.35,1.43.35,2.14c.37.71.37,1.42.37,2.13.35.71.71,1.42.71,2.13.35.71.69,1.43,1.06,1.78.35.7,1.06,1.42,1.43,1.77.35.71.35,1.42.35,2.13,0,.36-.35,1.07-.35,1.78-.37.36-.71,1.06-1.43,1.06-.37.36-1.06,1.07-1.77,1.07s-1.43-.36-2.14-.36h-42.31c-.71,0-1.43-.36-1.77-.71-.71-.36-1.06-.7-1.43-1.06-.35-.71-.35-1.43-.35-1.78,0-.71,0-1.42.35-1.77l1.06-2.13c.37-.71.71-1.07,1.08-1.78.35-.71.71-1.42.71-2.13.35-.71.35-1.42.69-2.13,0-.71.37-1.43.37-2.14s.35-1.42.35-2.13c.37-.7.37-1.42.37-2.49v-2.13c.35-.71.35-1.43.35-2.13v-4.27c0-.71-.35-1.42-.35-2.49s.35-1.07.35-2.13v-27.74c0-1.06-.35-1.06-.35-2.13s.35-1.06.35-2.13v-8.53c0-1.07-.35-1.07-.35-2.13,0-1.43.35-1.43.35-2.49v-12.8c0-.71,0-1.42-.35-2.13-.37-.36-.71-1.07-1.43-1.43-.35-.7-1.06-1.06-1.43-1.42-.71,0-1.41-.36-2.12-.36h-4.28c-1.06,0-1.06.36-2.12.36h-4.63c-1.06,0-1.06-.36-2.14-.36h-8.52c-1.06,0-1.06.36-2.14.36s-1.06-.36-2.12-.36h-4.28c-.69,0-1.41.36-2.12.71-.71,0-1.43.36-1.77.7l-1.08,2.14c0,.36-.71,1.06-.71,1.77,0,1.07.37,1.07.37,2.13v8.53c0,1.07-.37,1.07-.37,2.14s.37,1.06.37,2.13v2.49c0,1.07-.37,1.07-.37,2.13s.37,1.07.37,2.14v14.92c0,1.07-.37,1.07-.37,2.14s.37,1.06.37,2.13-.37,1.06-.37,2.13.37,1.07.37,2.13v23.82c.35.71.35,1.42.71,2.13,0,.71-.37,1.78,0,2.49,0,.71.35,1.43.35,2.13.37.71,0,1.43.37,2.14,0,.71.35,1.42.71,2.13,0,.71.35,1.42.35,2.13.35.71,1.06,1.07,1.06,1.78l1.08,2.13c.35.36.69,1.06.69,1.77,0,.36,0,1.07-.35,1.78-.35.36-.71,1.06-1.43,1.06-.35.36-1.06.71-1.77.71h-14.92c-.71,0-1.43.36-2.14.36s-1.43-.36-2.14-.36h-25.24c-.69,0-1.41,0-2.12-.36Z"/>
    <path class="cls-1" d="m1684.57,702.33v-10.66c0-.71,0-1.42.37-2.13v-2.14c0-.7,0-1.42.35-2.13v-2.13c0-.71,0-1.43.37-2.13v-2.13c0-.71.35-1.43.35-2.14v-2.13c0-.71.35-1.42.35-2.13s0-1.43.37-2.14c0-.7.35-1.42.35-2.13v-2.13c0-.71.37-1.43.37-2.13.35-.71.35-1.43.35-2.13s.37-1.43.71-2.14v-2.13c.37-.71.37-1.42.71-2.13,0-.71,0-1.43.35-2.14,0-.7.37-1.42.71-2.13,0-.7,0-1.42.37-2.13,0-.71.35-1.07.71-1.77,0-.71.35-1.43.35-2.14.35-.7.35-1.42.71-2.13,0-.71.71-1.42.71-2.13.35-.71.35-1.43.71-2.13,0-.36.35-1.07.69-1.78.37-.71.37-1.42.71-2.13.37-.71.71-1.07,1.08-1.77,0-.71.35-1.43.71-2.14.35-.7.69-1.06,1.06-1.77,0-.71.35-1.42.71-2.13.35-.36.71-1.07,1.06-1.78.37-.7,1.06-1.06,1.43-1.77.35-.71.35-1.42.71-1.77.71-.71.71-1.43,1.06-2.14.71-.36,1.06-1.06,1.43-1.42.71-.71,1.06-1.07,1.41-1.77.37-.71.71-1.07,1.08-1.78.71-.36,1.06-1.07,1.77-1.42.35-.71,1.06-1.07,1.43-1.43.35-.71,1.06-1.06,1.43-1.77.69-.36,1.06-1.07,1.41-1.43.71-.71,1.08-1.06,1.77-1.42.37-.36,1.08-1.07,1.8-1.43.35-.36,1.06-.7,1.77-1.06.35-.36,1.06-.71,1.77-1.43.35-.36,1.06-.71,1.77-1.07.37-.35,1.08-.7,1.77-1.06.71-.36,1.43-.36,2.14-.71.35-.36,1.06-.71,1.77-1.06.71-.36,1.43-.36,2.14-.71.35-.36,1.06-.71,1.77-.71.71-.36,1.43-.36,2.14-.71.71,0,1.41-.36,2.12-.36.71-.36,1.43-.7,2.14-.7.71-.36,1.43-.36,2.12-.71h2.14c.71-.36,1.43-.36,2.14-.36h4.26c.71-.36,1.43-.36,2.14-.36h8.52c.71,0,1.43.36,2.14.36.71.36,1.41.36,2.12.36.71.36,1.43,0,2.14.36.71,0,1.43.36,2.14.36s1.41.35,2.12.35c.71.36,1.08.71,1.77.71.71.36,1.43.36,2.14.71.71,0,1.43.36,2.14.71.71.36,1.41.36,1.77.71l2.14,1.06c.69.36,1.41.36,2.12.71.37.36,1.06.71,1.43,1.06l2.12,1.07c.37.36,1.08,1.07,1.8,1.43.35.36,1.06.7,1.41,1.42.71.36,1.43.71,1.8,1.07.71.36,1.06,1.06,1.77,1.42.35.71,1.06,1.07,1.43,1.43.69.36,1.06,1.06,1.77,1.42.35.71.71,1.07,1.41,1.78.37.35.71,1.06,1.43,1.42.37.71.71,1.07,1.08,1.78.69.7,1.06,1.06,1.41,1.77.71.36,1.08,1.06,1.43,1.77.37.36.71,1.07,1.06,1.78.37.36.71,1.06,1.08,1.77.35.71.71,1.07,1.06,1.77l1.06,2.14c0,.36.71,1.06,1.08,1.77.35.71.35,1.42.69,1.77l1.08,2.14c.35.7.35,1.42.71,2.13.35.36.35,1.06.71,1.77l1.06,2.14c0,.35.35,1.06.35,1.77l1.08,2.13c0,.71.35,1.43.35,2.13.37.71.37,1.43.37,2.14.35.7.69,1.06.69,1.77.37.71.71,1.43.71,2.13.37.71.37,1.43.37,2.13s.71,1.43.71,2.14c.35.71,0,1.42,0,2.13.35.71.69,1.42.69,2.13s.37,1.43.37,2.14c.35.7.35,1.42.35,2.13.37.7.37,1.42.37,2.13s.35,1.43.35,2.13.37,1.43.37,2.13.35,1.43.35,2.14,0,1.42.35,2.13c0,.71-.35,1.42,0,2.13v2.14c.37.7.37,1.42.37,2.13s.35,1.42.35,2.13v8.53c0,.71.37,1.42.37,2.13v6.4c0,.71.35,1.43.35,2.13s-.35,1.43-.35,2.13v12.8c0,.71,0,1.43-.37,2.13v6.4c0,.71-.35,1.42-.35,2.13s-.37,1.43-.37,2.14v2.13c0,.7,0,1.42-.35,2.13,0,.71,0,1.43-.35,2.13v2.13c0,.71-.37,1.43-.37,2.14s0,1.42-.35,2.13c0,.71-.37,1.42-.37,2.13s-.35,1.43-.35,2.14-.37,1.42-.37,2.13-.35,1.42-.35,2.13c-.35.71-.35,1.43-.35,2.13-.37.71-.71,1.43-.71,2.13-.37.71,0,1.43-.37,2.14,0,.71-.35,1.42-.71,2.13,0,.71-.35,1.42-.35,1.77-.35.71-.35,1.43-.71,2.14-.35.7-.35,1.42-.35,2.13l-1.08,2.13c0,.71-.35,1.43-.71,1.78-.35.7-.35,1.42-.35,2.13l-1.06,2.13c0,.71-.71,1.07-1.08,1.77,0,.71-.35,1.43-.35,2.14-.37.7-.71,1.42-1.06,1.77l-1.08,2.13c-.35.36-.71,1.07-1.06,1.78-.35.7-.71,1.42-1.06,1.77-.37.71-.71,1.43-1.08,1.77l-1.06,2.14-1.43,1.42c-.35.71-.71,1.43-1.06,1.78-.71.7-1.06,1.42-1.43,1.77-.35.71-1.06,1.06-1.43,1.77-.35.36-1.06.71-1.41,1.43-.71.36-1.08,1.06-1.43,1.42-.71.71-1.43,1.07-1.77,1.43-.71.36-1.06,1.06-1.43,1.42-.71.71-1.43.71-2.14,1.43-.35.36-1.06.71-1.41,1.42-.71.36-1.43.71-1.8,1.07l-2.12,1.06c-.37.36-1.06.71-1.77,1.07s-1.08.36-1.77.71c-.71.36-1.43,1.07-1.8,1.07-.71.35-1.41.35-2.12.7-.71.36-1.43.71-2.14.71-.71.36-1.43.71-2.14.71-.69.36-1.41.36-2.12.36-.37.35-1.06.7-1.77.7-.71.36-1.43,0-2.14.36-.71,0-1.43.36-2.14.71-.71,0-1.41-.36-2.12,0-.71,0-1.43,0-2.14.36h-6.4c-.71,0-1.43.36-2.12,0-.71,0-1.43.36-2.14,0h-2.14c-.69-.36-1.41-.36-2.12-.36s-1.43,0-2.14-.36c-.71,0-1.43,0-2.14-.36-.69,0-1.41-.36-2.12-.36-.71-.36-1.43-.36-2.14-.36-.71-.35-1.41-.35-2.12-.7-.71,0-1.43-.36-2.14-.71s-1.06-.36-1.77-.71-1.43-.36-2.14-.7c-.71-.36-1.43-.71-2.12-.71-.37-.36-1.08-.71-1.8-1.07-.69-.36-1.06-1.07-1.77-1.42-.71-.36-1.43-.36-1.77-.71-.71-.36-1.06-1.07-1.77-1.43-.71-.35-1.43-.7-1.77-1.06-.71-.36-1.43-.71-1.8-1.43-.69-.36-1.06-.71-1.77-1.42-.35-.36-.71-1.07-1.41-1.43-.37-.36-1.08-.7-1.8-1.42-.35-.36-.71-1.07-1.41-1.43-.37-.71-.71-1.42-1.08-1.77-.71-.71-1.06-1.07-1.43-1.77-.35-.36-.69-1.07-1.41-1.78-.37-.36-.71-1.07-1.08-1.77-.35-.71-1.06-1.07-1.41-1.78-.37-.35-.37-1.06-.71-1.77-.37-.71-.71-1.07-1.06-1.77l-1.08-2.14c-.35-.35-.71-1.06-1.06-1.77-.37-.71-.71-1.43-1.06-1.77,0-.71-.71-1.43-1.08-2.14,0-.35-.35-1.06-.71-1.77-.35-.71-.35-1.43-.71-2.13-.35-.71-.35-1.43-.69-2.13-.37-.36-.37-1.07-.71-1.78-.37-.71-.71-1.42-.71-2.13-.37-.71-.37-1.43-.71-2.13,0-.71-.35-1.07-.71-1.78,0-.71-.35-1.42-.35-2.13-.37-.71-.37-1.42-.37-2.13-.35-.71-.71-1.43-.71-2.14-.35-.7-.35-1.42-.69-2.13,0-.7-.37-1.42-.37-2.13s-.35-1.43-.35-2.13,0-1.43-.37-2.13c0-.71,0-1.43-.35-2.14,0-.71-.37-1.42-.37-2.13s0-1.42-.35-2.13v-2.14c0-.7-.37-1.42-.37-2.13-.35-.7-.35-1.42-.35-2.13v-2.13c0-.71-.35-1.43-.71-2.13,0-.71.37-1.43.37-2.14-.37-.71-.37-1.42-.37-2.13-.35-.71-.35-1.42-.35-2.13v-4.27c-.37-.7-.37-1.42-.37-2.13v-14.93Zm95.64,0c0-.7-.35-1.42-.35-2.13v-10.66c0-.71-.37-1.43-.37-2.14s.37-1.42,0-2.13v-4.26c0-.71,0-1.43-.35-2.13v-2.14c0-.71,0-1.42-.37-2.13v-2.13c0-.71,0-1.43-.35-2.14v-2.13c0-.7-.37-1.42-.71-2.13v-2.13c0-.71-.37-1.43-.37-2.13-.35-.71,0-1.43-.35-2.14,0-.71-.35-1.42-.35-2.13-.37-.71-.37-1.42-.37-2.13-.35-.71-.71-1.07-.71-1.78-.35-.7-.35-1.42-.35-2.13l-1.08-2.13c0-.71,0-1.43-.35-2.13-.35-.71-.71-1.07-.71-1.78l-1.06-2.13c-.37-.71-.37-1.43-.71-1.77-.35-.71-1.06-1.07-1.43-1.78-.35-.7-.71-1.42-1.06-1.77-.35-.71-.71-1.07-1.43-1.78-.35-.35-.71-1.06-1.06-1.42-.71-.71-1.06-1.07-1.77-1.42-.71-.71-1.08-1.07-1.8-1.43-.69-.36-1.06-.71-1.77-1.07s-1.41-.7-2.12-.7c-.37-.36-1.08-.71-1.77-.71-.71-.36-1.43,0-2.14-.36h-4.26c-.71,0-1.43.36-2.14.36-.71.36-1.43.36-2.14.71s-1.41.35-2.12.7-1.08.36-1.77,1.07c-.71.36-1.08.71-1.8,1.07s-1.06,1.06-1.41,1.77c-.71.36-1.08.71-1.43,1.42-.37.36-.71,1.07-1.43,1.78-.35.36-.71,1.07-1.06,1.77-.37.36-.71,1.07-1.06,1.78-.37.7-.71,1.42-1.08,1.77,0,.71-.35,1.43-.71,2.13-.35.71-.71,1.07-1.06,1.78,0,.7-.35,1.42-.35,2.13-.37.71-.37,1.42-.71,2.13-.37.71-.37,1.43-.71,2.13,0,.71-.37,1.07-.37,1.78-.35.71-.35,1.42-.71,2.13v2.13c0,.71-.35,1.43-.35,2.14s-.35,1.42-.35,2.13-.37,1.42-.37,2.13c-.35.71-.35,1.43-.71,2.13v2.13c-.35.71,0,1.43,0,2.14s-.35,1.42-.35,2.13-.37,1.42-.37,2.13v4.27c0,.7-.35,1.42-.35,2.13v2.13c-.35.71,0,1.43,0,2.13s0,1.43-.35,2.14v29.86c.35.71.35,1.43.35,2.13v6.4c.35.71.35,1.43.35,2.14.37.7,0,1.42.37,2.13v2.13c.35.71,0,1.43,0,2.13.35.71.35,1.43.35,2.13.37.71,0,1.43,0,2.14.37.71.71,1.42.71,2.13v2.13c.37.71.37,1.43.71,2.14v2.13c0,.7.35,1.42.71,2.13,0,.71.35,1.43.35,2.13s.37,1.43.37,1.78c.35.7.71,1.42.71,2.13.35.71.35,1.42.71,2.13,0,.71.35,1.43.35,2.13.35.71.71,1.07,1.06,1.78.37.71.71,1.42.71,2.13.37.71.71,1.42,1.08,1.77,0,.71.69,1.43,1.06,1.78l1.06,2.13c.37.36.71,1.07,1.43,1.42.35.71,1.06,1.07,1.43,1.43.35.71,1.06,1.07,1.41,1.43.71.7,1.08,1.06,1.8,1.42.69.36,1.41.71,1.77,1.07.71.35,1.43.7,2.12.7.71.36,1.43.36,2.14.71h2.14c.69.36,1.41.36,2.12.36h2.14c.71,0,1.43-.36,2.14-.36.69-.36,1.06-.36,1.77-.71.71-.36,1.41-.36,2.12-.7.71-.36,1.43-.71,1.77-1.07.71-.36,1.43-.71,1.8-1.07.71-.35,1.41-1.06,1.77-1.42l1.43-1.43c.35-.7.71-1.42,1.06-1.77.71-.71,1.06-1.42,1.43-1.77l1.06-2.14c.35-.36.35-1.06.71-1.77l1.06-2.13c.37-.36.71-1.07.71-1.78.35-.7.35-1.42.71-2.13.35-.71.35-1.42.71-2.13,0-.71.35-1.43.35-2.13.37-.36.37-1.07.71-1.78,0-.7,0-1.42.37-2.13,0-.71.35-1.43.35-2.13s.35-1.43.35-2.13.37-1.43.37-2.14v-2.13c.35-.71.35-1.42.71-2.13,0-.71,0-1.43.35-2.14,0-.7-.35-1.42,0-2.13v-2.13c.37-.71.37-1.43.37-2.13v-2.13c0-.71,0-1.43.35-2.14v-2.13c0-.71.37-1.42.37-2.13v-8.53c0-.71.35-1.43.35-2.13s-.35-1.43-.35-2.14.35-1.42.35-2.13v-6.4Z"/>
    <path class="cls-1" d="m1872.59,626.61c0-.71-.37-1.43-.37-2.13v-4.27c0-.71-.35-1.42-.35-2.13-.37-.71-.37-1.43-.37-2.13,0-1.07,0-1.78-.35-2.5,0-.7-.37-1.42-.37-2.13-.35-.7-.35-1.42-.35-2.13-.35-.71-.71-1.43-.71-2.13-.35-.36-.71-1.07-1.06-1.78-.37-.7-.71-1.42-1.06-1.77-.37-.71-.71-1.43-.71-2.13,0-.36.35-1.07.71-1.78l1.06-1.06c.71-.36,1.06-.71,1.77-.71h44.79c.71,0,1.06,0,1.77.36l1.43,1.42c.37.71,0,1.43,0,1.78,0,.7,0,1.42-.35,1.77l-1.08,2.13c-.35.71-.35,1.43-.71,2.14-.35.7-.69,1.06-.69,1.77l-1.08,2.13c0,.71,0,1.43-.35,2.13,0,.71-.37,1.43-.37,2.5v2.13c-.35.71,0,1.42,0,2.13-.35.71-.69,1.43-.69,2.13s.35,1.43.35,2.14-.35,1.42-.35,2.13c0,1.07.35,1.77.35,2.49v4.27c0,1.06-.35,1.06-.35,2.13s.35,1.06.35,2.13v2.13c0,1.07-.35,1.07-.35,2.13v4.27c0,1.07.35,1.07.35,2.13v2.14c0,1.06-.35,1.06-.35,2.13s.35,1.06.35,2.13-.35,1.07-.35,2.13v6.4c0,1.07.35,1.07.35,2.13s-.35,1.07-.35,2.14v2.13c0,1.06.35,1.06.35,2.13s-.35,1.07-.35,2.13v12.8c0,1.06.35,1.06.35,2.13s-.35,1.07-.35,2.13v4.27c0,1.06.35,1.06.35,2.13v2.13c0,1.07-.35,1.07-.35,2.14v10.66c0,1.06.35,1.06.35,2.13s-.35,1.07-.35,2.13v6.4c0,1.07.35,1.07.35,2.13s-.35,1.07-.35,2.13v19.21c0,1.06.35,1.06.35,2.13v2.13c0,1.07-.35,1.07-.35,2.14v8.52c0,.71,0,1.43.35,2.14,0,.71,0,1.42.35,2.13,0,.71,0,1.42.37,1.77,0,.71.35,1.43.71,2.14,0,.7.35,1.42.71,2.13.35.71.35,1.06.69,1.77.71.71,1.08,1.07,1.43,1.78.37.7.71,1.06,1.43,1.77.35.36,1.06.71,1.77,1.07l1.43,1.42c.71.36,1.43.71,2.14.71.69.36,1.06,1.07,1.77,1.07.71.35,1.41.35,2.12.7.71,0,1.43,0,2.14.36h2.14c.71,0,1.41.36,2.12.36s1.43-.36,2.14-.36c.71-.36,1.43-.36,2.12-.36.71-.36,1.43-.36,1.8-.7.71-.36,1.41-.36,2.12-.71s1.08-.71,1.8-1.07c.69-.71,1.06-1.07,1.77-1.42.35-.36,1.06-.71,1.77-1.07.35-.71,1.06-1.07,1.43-1.77.35-.36.69-1.07,1.06-1.78.35-.71.71-1.06,1.06-1.77.37-.71.71-1.43.71-2.13.37-.71.71-1.07.71-1.78.35-.71.35-1.42.35-2.13s.37-1.42.37-2.13v-8.53c0-1.07.35-1.07.35-2.13s-.35-1.07-.35-2.14v-6.4c0-1.06.35-1.06.35-2.13s-.35-1.06-.35-2.13v-2.13c0-1.07.35-1.07.35-2.13s-.35-1.07-.35-2.14.35-1.06.35-2.13v-2.13c0-1.07-.35-1.07-.35-2.14s.35-1.06.35-2.13-.35-1.06-.35-2.13.35-1.07.35-2.13-.35-1.07-.35-2.13v-4.27c0-1.07.35-1.07.35-2.13s-.35-1.07-.35-2.14.35-1.06.35-2.13-.35-1.06-.35-2.13v-4.26c0-1.07.35-1.07.35-2.14s-.35-1.06-.35-2.13v-4.27c0-1.06.35-1.06.35-2.13s-.35-1.06-.35-2.13v-4.26c0-1.07.35-1.07.35-2.14v-2.13c0-1.07-.35-1.07-.35-2.13v-8.53c0-1.07.35-1.07.35-2.13s-.35-1.07-.35-2.14v-12.79c0-1.07.35-1.07.35-2.13s-.35-1.07-.35-2.14v-2.13c0-1.07.35-1.07.35-2.13s-.35-1.07-.35-2.14v-4.26c0-1.07.35-1.07.35-2.13s-.35-1.07-.35-2.13v-11.03c0-.7-.37-1.42-.37-2.13v-4.62c-.35-.71-.35-1.43-.69-2.14,0-.7-.37-1.42-.37-2.13-.35-.7-.35-1.42-.71-2.13,0-.71-.35-1.43-.35-2.13-.37-.71-.71-1.07-1.08-1.78-.35-.7-.69-1.42-1.41-1.77-.37-.71-.37-1.43-.37-2.13,0-.36,0-1.07.37-1.78.35-.35.71-.7,1.41-1.06.71-.36,1.08-.71,1.8-.71h17.07c.71,0,1.41.36,2.12.36s1.43-.36,2.14-.36h21.33c.71,0,1.43.36,2.14.36.35,0,1.06,0,1.77.36l1.06,1.06c.37.71.71,1.43.71,1.78,0,.7-.35,1.42-.71,1.77-.71.71-1.06,1.43-1.06,2.13-.35.71-.71,1.43-.71,2.14-.35.7-.71,1.06-1.06,1.77-.37.71-.37,1.43-.71,2.13,0,.71-.37,1.43-.37,2.13v2.5c-.35.7-.35,1.42-.35,2.13-.35.71-.35,1.42-.35,2.13s-.37,1.43-.37,2.13v13.16c0,1.06.37,1.06.37,2.13s-.37,1.07-.37,2.13.37,1.07.37,2.13v2.14c0,1.06-.37,1.06-.37,2.13v6.4c0,1.06.37,1.06.37,2.13s-.37,1.07-.37,2.13v8.53c0,1.07.37,1.07.37,2.14s-.37,1.06-.37,2.13v8.53c0,1.06.37,1.06.37,2.13v2.13c0,1.07-.37,1.07-.37,2.14v10.66c0,1.06.37,1.06.37,2.13s-.37,1.07-.37,2.13v3.91c0,1.06.37,1.06.37,2.13s-.37,1.07-.37,2.13v2.14c0,1.06.37,1.06.37,2.13s-.37,1.07-.37,2.13v4.27c0,1.06.37,1.06.37,2.13s-.37,1.06-.37,2.13v4.27c0,1.06.37,1.06.37,2.13s-.37,1.07-.37,2.13v4.63c0,.7.37,1.42.37,2.13s-.37,1.42,0,2.13v13.15c.35.71.35,1.43.35,2.14.35.7,0,1.42,0,2.13.35.71.35,1.42.71,2.13,0,.71,0,1.43.35,2.13,0,.71.37,1.43.37,2.14.35.7.35,1.42.71,2.13.35.71.71,1.06,1.06,1.77l1.06,2.14c.37.35.71,1.06.71,1.77,0,.36-.35,1.06-.35,1.77-.37.71-.71,1.43-1.08,1.78l-1.06,2.13c-.35.71-.71,1.06-1.06,1.77-.37.71-.71,1.07-1.08,1.78-.35.7-.69,1.06-1.06,1.77-.35.71-.71,1.07-1.06,1.77-.37.71-.71,1.43-1.43,1.78-.35.71-.71,1.06-1.06,1.77-.71.36-.71,1.07-1.43,1.77-.35.36-.71,1.07-1.43,1.43-.35.71-1.06,1.07-1.41,1.43-.37.7-.71,1.42-1.43,1.77l-1.43,1.42c-.35.71-1.06,1.07-1.77,1.43-.37.71-.71,1.07-1.43,1.42-.71.36-1.06,1.07-1.77,1.43-.35.36-1.06.71-1.43,1.42-.71.36-1.43.36-2.12.71-.71.36-1.08,1.07-1.8,1.43-.35.36-1.06.7-1.77,1.06-.35.36-1.06,1.07-1.77,1.43-.35.36-1.06.36-1.77.7l-2.14,1.07c-.35,0-1.06.36-1.77.71s-1.06.71-1.77,1.07c-.71.35-1.43.35-2.14.35l-2.12,1.07c-.37.36-1.43.36-1.8.36l-2.12,1.06h-2.14c-.71.36-1.43.36-2.14.71-.69,0-1.41.36-2.12.36-.71.36-1.43.36-2.14.36-.35,0-1.06.36-1.77.36-.71.36-1.43.36-2.14.36s-1.41.36-2.12.36h-2.14c-.71,0-1.43,0-2.12.36h-2.14c-.71,0-1.43-.36-2.14-.36h-4.26c-.71,0-1.43-.36-2.14-.36s-1.41-.36-2.12-.36-1.43,0-2.14-.36c-.71,0-1.43,0-2.12-.36-.71,0-1.43,0-2.14-.36-.71,0-1.06-.36-1.77-.71-.71,0-1.43,0-2.14-.35-.71,0-1.43-.36-2.12-.71-.71,0-1.43-.36-2.14-.71-.71,0-1.06-.36-1.77-.36l-2.14-1.06c-.71-.36-1.43-.36-2.14-.36-.35-.36-1.06-1.07-1.77-1.43s-1.41-.36-1.77-.71l-2.14-1.06c-.35-.36-1.06-.36-1.77-.71s-1.06-1.06-1.77-1.42c-.35-.36-1.06-.71-1.77-1.43-.37-.36-1.06-.71-1.43-1.07-.71-.35-1.43-.7-1.77-1.42-.71-.36-1.06-.71-1.77-1.07-.71-.7-1.43-.7-1.77-1.42-.71-.36-1.08-1.07-1.43-1.43-.71-.36-1.08-.7-1.77-1.42-.37-.36-.71-1.07-1.43-1.43-.37-.7-.71-1.42-1.06-1.77-.71-.71-1.08-1.07-1.43-1.77l-1.43-1.43c-.35-.71-.71-1.06-1.06-1.77-.71-.71-1.08-1.07-1.43-1.78-.35-.36-.71-1.06-1.06-1.77-.37-.71-.71-1.07-1.08-1.77-.71-.71-.71-1.07-1.06-1.78s-.71-1.42-1.06-1.77l-1.08-2.13c-.35-.36-.69-1.07-.69-1.78-.37-.71-.71-1.42-.71-1.77,0-.71.35-1.43.71-1.77l1.06-2.14c.35-.36.35-1.06.71-1.77.35-.71.35-1.43.71-2.13.35-.71.35-1.43.69-2.14,0-.7.37-1.42.37-2.13.35-.71.35-1.42.35-2.13s0-1.43.37-2.13v-2.14c.35-.7,0-1.42.35-2.13v-6.76c0-.7.37-1.42.37-2.13s-.37-1.42-.37-2.13.37-1.43.37-2.13v-2.13c0-.71-.37-1.43-.37-2.5v-2.13c0-1.06.37-1.06.37-2.13s-.37-1.07-.37-1.78c0-1.06.37-1.06.37-2.13v-2.13c0-1.07-.37-1.07-.37-2.13v-10.67c0-1.06.37-1.06.37-2.13v-8.53c0-1.06-.37-1.06-.37-2.13v-6.4c0-1.06.37-1.06.37-2.13v-2.13c0-1.07-.37-1.07-.37-2.13v-2.14c0-1.06.37-1.06.37-2.13s-.37-1.07-.37-2.13v-4.27c0-1.06.37-1.06.37-2.13s-.37-1.07-.37-2.13.37-1.07.37-2.13-.37-1.07-.37-2.14v-4.26c0-1.07.37-1.07.37-2.14s-.37-1.06-.37-2.13.37-1.06.37-2.13-.37-1.07-.37-2.13v-2.13c0-1.07.37-1.07.37-2.14v-2.13c0-1.07-.37-1.07-.37-2.13v-6.4c0-1.07.37-1.07.37-2.13v-2.13c0-1.07-.37-1.07-.37-2.14s.37-1.06.37-2.13v-2.49Z"/>
    <path class="cls-1" d="m2044.58,769.53c.35-.71,1.06-1.07,1.77-1.43s1.06-.36,1.77-.36,1.43,0,2.14.71c.35.36.71,1.07,1.43,1.43.35.35,1.06.7,1.77,1.06.35.36,1.06.71,1.77,1.43.35.35,1.06.7,1.43,1.06.71.36,1.41.71,1.77,1.07l2.12,1.07c.37,0,1.08.35,1.8.7.71.36,1.41.36,1.77.71l2.14,1.07c.69,0,1.41.35,1.77.35.71.36,1.41.71,2.12.71.71.36,1.43.36,2.14.71h1.77c.71.36,1.43,0,2.14.36.71,0,1.43.36,2.12.36h6.4c.71,0,1.43,0,2.14-.36h1.77c.71,0,1.43-.36,2.14-.36.71-.36,1.41-.36,2.12-.71.71,0,1.43-.36,2.14-.36.71-.36,1.06-.7,1.77-.7.71-.36,1.43-.71,1.77-1.07.71-.36,1.43-.71,1.8-1.07l2.12-1.06c.37-.36,1.06-.71,1.43-1.07.71-.71,1.06-1.07,1.77-1.42.35-.71,1.06-1.07,1.43-1.43.35-.71.71-1.42,1.43-1.77.35-.71.69-1.07,1.06-1.78.35-.7.71-1.06,1.06-1.77.37-.71.71-1.07,1.08-1.77.35-.71.69-1.07,1.06-1.78,0-.71.35-1.42.35-2.13.37-.71.71-1.42.71-1.77.37-.71.37-1.43.37-2.14.35-.7.35-1.42.35-2.13s.35-1.42.35-2.13c.37-.71,0-1.43,0-2.13v-2.14c0-.7-.35-1.42-.35-2.13v-2.13c-.35-.71-.71-1.07-1.06-1.77,0-.71,0-1.43-.37-2.14-.35-.71-.71-1.42-1.06-1.77-.35-.71-.35-1.43-.71-2.13-.71-.71-1.06-1.07-1.43-1.78-.35-.36-.71-1.06-1.41-1.42-.37-.71-.71-1.43-1.08-1.78-.35-.7-1.06-1.06-1.43-1.77-.69-.36-1.06-.71-1.77-1.43-.35-.35-1.06-.7-1.41-1.42-.71-.36-1.08-.71-1.8-1.42-.35-.36-1.06-.71-1.77-1.07-.35-.36-1.06-.71-1.43-1.43-.69-.36-1.41-.7-1.77-1.06-.71-.36-1.06-1.07-1.77-1.43-.35-.36-1.06-1.06-1.77-1.42-.37-.36-1.06-.71-1.77-1.07-.37-.36-1.08-.71-1.77-1.07l-1.43-1.42-2.14-1.07c-.35-.35-1.06-.7-1.77-1.06-.37-.36-1.06-.71-1.77-1.07-.37-.36-1.08-.71-1.77-1.42-.37-.36-1.08-.71-1.43-1.43-.71-.36-1.43-.36-1.77-1.06-.71-.36-1.43-.71-1.8-1.07-.69-.36-1.06-1.07-1.77-1.43-.35-.36-1.06-.7-1.77-1.06-.35-.36-1.06-1.07-1.43-1.78-.71-.35-1.06-.7-1.77-1.06-.35-.36-1.06-.71-1.77-1.43-.35-.36-.71-1.06-1.43-1.42-.35-.71-1.06-1.07-1.43-1.43-.35-.7-1.06-1.06-1.41-1.77-.71-.36-1.43-.71-1.8-1.07-.35-.71-.69-1.42-1.41-1.77-.37-.71-.71-1.43-1.08-1.77-.35-.71-1.06-1.07-1.41-1.78-.37-.36-.71-1.07-1.08-1.42-.69-.71-1.06-1.43-1.41-1.78-.37-.7-.71-1.42-1.08-1.77l-1.06-2.13c-.35-.71-.71-1.07-1.06-1.78-.37-.36-.71-1.06-.71-1.77l-1.08-2.13c0-.71-.69-1.07-.69-1.78-.37-.7-.37-1.42-.71-2.13,0-.71-.37-1.43-.71-2.13,0-.71-.37-1.43-.37-1.78-.35-.7-.69-1.42-.69-2.13-.37-.71-.37-1.42-.37-2.13s-.71-1.43-.71-2.13v-2.14c0-.7-.35-1.42-.35-2.13-.37-.71-.37-1.42-.37-2.13s.37-1.43,0-2.13v-8.53c0-.71.37-1.43.37-2.14s0-1.42.35-1.77c0-.71-.35-1.77,0-2.13,0-.71.37-1.43.37-2.14.35-.7,0-1.42.35-2.13,0-.7.37-1.42.37-2.13.35-.71.69-1.43.69-2.13.37-.36.37-1.07.71-1.78,0-.7.37-1.42.71-2.13.37-.71.37-1.42.71-2.13.35-.36.35-1.07.71-1.77.35-.71,1.06-1.07,1.06-1.78l1.08-2.13c.35-.36.69-1.07,1.41-1.43.37-.7.71-1.06,1.08-1.77.35-.71.71-1.07,1.06-1.77.71-.71,1.06-1.07,1.43-1.78.71-.36,1.06-.7,1.77-1.42l1.43-1.43c.35-.36,1.06-.71,1.41-1.42.71-.36,1.43-.71,1.8-1.07.69-.36,1.06-1.06,1.77-1.42.71-.36,1.06-1.07,1.43-1.43l2.12-1.07c.37-.35,1.06-.35,1.77-.7s1.43-.71,1.77-1.07c.71-.36,1.43-.36,2.14-.71.71-.35,1.43-.7,1.77-.7.71-.36,1.43-.36,2.14-.71.71,0,1.43-.71,2.14-.71.69-.36,1.41,0,2.12-.36.71,0,1.43-.36,2.14-.71.35,0,1.06,0,1.77-.35h2.14c.71-.36,1.41-.36,2.12-.36h2.14c.71,0,1.43-.36,2.12-.36h4.28c.71,0,1.43-.36,2.12-.36.71.36,1.43.36,2.14.36s1.43.36,2.14.36h3.89c.71,0,1.43.36,2.14.7h2.14c.71,0,1.41.36,2.12.36.71.36,1.43.36,1.77.36.71,0,1.43.36,2.14.36s1.43.36,2.14.36,1.43.36,2.12.36,1.43,0,2.14.36c.71,0,1.43-.36,2.14,0h3.89c.71,0,1.43-.36,2.14-.36.71-.36,1.43-.36,1.77-.71.71-.36,1.43-.36,1.77-.71.71,0,1.43,0,1.8.36.69.36,1.41.36,1.77,1.07.35.36,0,1.07,0,1.77q.35,1.07.35,2.13v2.14q.37,1.06.37,2.13t.35,2.13v4.27c0,1.06.37,1.06.37,2.13s0,1.07.35,2.13v4.27c0,1.06.35,1.06.35,2.13s-.35,1.07-.35,2.13q.35,1.07.35,2.14c0,1.06.37,1.06.37,2.13s0,.7.35,1.77v4.27c0,.7,0,1.77-.35,2.13-.37.71-1.06,1.07-1.43,1.42-.71.36-1.43.36-2.14.36s-1.41,0-1.77-.7c-.71-.36-1.06-1.07-1.41-1.43-.71-.71-1.43-1.07-1.8-1.43-.69-.35-1.06-1.06-1.77-1.42-.71-.36-1.43-.71-1.77-1.07-.71-.35-1.43-.7-1.77-1.06l-2.14-1.07c-.35-.36-1.06-.36-1.77-.71s-1.43-.7-1.77-1.06c-.71-.36-1.43-.36-2.14-.71s-1.43-.36-2.12-.71c-.71,0-1.43-.36-2.14-.7-.71,0-1.06-.36-1.77-.36s-1.43-.36-2.14-.36c-.71-.36-1.43-.36-2.12-.36-.71-.36-1.43-.71-2.14-.71h-4.26c-.71,0-1.43,0-2.14.36h-2.14c-.69.36-1.41.36-2.12.71-.71,0-1.43,0-2.14.36-.71.36-1.06.7-1.77,1.06-.71.36-1.43.36-1.77,1.07-.71.36-1.43.36-2.14,1.06-.35.36-1.06.71-1.43,1.43-.35.36-.69,1.07-1.41,1.77-.37.36-.71,1.07-1.08,1.78-.35.7-.35,1.06-.71,1.77-.35.71-.69,1.43-.69,2.13-.37.71-.71,1.43-.71,2.14v2.13c0,.71-.37,1.42-.37,2.13v2.13c0,.71-.35,1.43-.35,2.14.35.7.71,1.42.71,2.13s0,1.42.35,1.77c0,.71.37,1.43.71,2.14.35.7.35,1.42.71,2.13.35.7.71,1.06,1.06,1.77.37.71.71,1.43,1.08,1.78.35.7.69,1.06,1.41,1.77.37.36.71,1.06,1.43,1.42.35.71.71,1.07,1.06,1.78.71.36,1.08,1.06,1.43,1.77.71.36,1.06.71,1.77,1.43.37.35,1.08.7,1.43,1.06.71.71,1.06,1.07,1.43,1.78.71.36,1.43.7,1.77,1.06.71.71,1.06,1.07,1.77,1.43.37.36,1.06.7,1.77,1.06.71.36,1.08,1.07,1.43,1.43.71.71,1.43,1.07,1.77,1.42.71.36,1.43.71,1.77,1.07.71.71,1.08,1.07,1.8,1.42.35.36,1.41.71,1.77,1.07.71.36,1.06,1.07,1.77,1.43.35.36,1.06.7,1.77,1.06.37.71,1.06.71,1.77,1.07.37.71,1.08,1.06,1.43,1.42.71.71,1.06,1.07,1.77,1.43.37.36,1.08,1.07,1.8,1.42.35.36,1.06.71,1.41,1.43.71.36,1.43.71,1.77,1.06.71.36,1.08,1.07,1.8,1.43l1.41,1.43c.71.35,1.08.7,1.8,1.42.35.36,1.06.71,1.41,1.42.71.36,1.08,1.07,1.8,1.43.35.36.69,1.07,1.06,1.77.71.36,1.43.71,1.77,1.43l1.43,1.42c.35.71.71,1.07,1.41,1.78.37.36.71,1.06,1.08,1.77l1.43,1.43c.35.7.69,1.42,1.06,1.77.35.71.71,1.43,1.06,1.77.37.71,1.08,1.07,1.43,1.78.35.7.71,1.42,1.06,1.77.37.71.37,1.43.71,2.13.37.71.71,1.43,1.06,1.78l1.08,2.13c0,.36.35,1.07.71,1.77.35.71.35,1.43.69,2.14.37.7.37,1.42.71,1.77,0,.71.37,1.43.71,2.13v2.13c.37.71.37,1.43.71,2.14,0,.71.37,1.42.37,2.13s0,1.42.35,2.13v2.14c.35.7.35,1.42.35,2.13.37.7,0,1.42.37,2.13,0,.71-.37,1.43-.37,2.13s.37,1.43.37,2.13-.37,1.43-.37,2.14v6.4c-.35.7-.35,1.42-.35,2.13-.35.36-.35,1.06-.35,1.77s-.37,1.43-.37,2.13c-.35.71-.71,1.43-.71,2.14-.35.7-.35,1.42-.71,2.13,0,.71,0,1.42-.35,2.13,0,.71-.71,1.07-.71,1.77-.35.71-.71,1.43-.71,2.14-.35.71-.35,1.42-.71,2.13-.35.36-.71,1.07-1.06,1.77-.35.71-.35,1.43-.71,1.78l-1.06,2.13c-.37.36-.71,1.07-1.06,1.77-.37.36-.71,1.07-1.08,1.78-.35.71-1.06,1.06-1.43,1.77-.35.71-.69,1.07-1.06,1.77-.35.71-1.06,1.07-1.43,1.43-.35.71-.71,1.43-1.06,1.77-.71.71-1.06,1.07-1.77,1.43-.37.71-1.06,1.06-1.43,1.77l-1.43,1.43c-.69.36-1.06,1.06-1.41,1.42-.71.71-1.43.71-1.8,1.43-.69.36-1.06,1.06-1.77,1.42-.35.36-1.06.71-1.77,1.07-.35.36-1.06.71-1.77,1.07-.37.35-1.06,1.06-1.77,1.42-.37.36-1.08.71-1.77,1.07-.71.35-1.43.35-1.8.7l-2.12,1.07c-.71.36-1.08.71-1.8,1.07-.69,0-1.41,0-2.12.36-.71.35-1.06.7-1.77,1.06-.71,0-1.43.36-2.14.71-.71,0-1.43,0-2.14.36-.69,0-1.41.36-2.12.7h-2.14c-.71,0-1.06.36-1.77.71h-2.49c-.35,0-1.06.36-1.77.36h-6.4c-.71,0-1.43.36-2.14.36s-1.41,0-2.12-.36c-.71,0-1.43,0-2.14-.36h-4.26c-.71,0-1.43-.36-2.14-.36-.71-.36-1.43,0-2.12,0-.71-.36-1.43-.7-2.14-.7h-2.14c-.71,0-1.43-.36-2.12-.36s-1.43,0-2.14-.36h-8.54c-.69,0-1.41.36-2.12.36-.71.36-1.43,0-2.14.36-.71,0-1.41.35-2.12.35-.71.36-1.43.36-2.14.36s-1.06,0-1.77-.36c-.71,0-1.43-.35-1.77-1.06-.37-.36-.71-1.07-.71-1.77v-4.27c0-1.07-.37-1.07-.37-2.13-.35-1.07,0-1.07,0-2.14q-.35-1.06-.35-2.13c0-1.06-.37-1.06-.37-2.13s0-1.07-.35-2.13c0-1.07.35-1.07,0-2.13v-2.14q-.35-1.06-.35-2.13c0-1.07-.37-1.07-.37-2.13v-2.14c-.35-1.06,0-1.06-.35-2.13v-2.13c-.37-1.07,0-1.07-.37-2.13v-2.13l-.71-2.14v-2.13c0-.71,0-1.42.37-1.77Z"/>
    <path class="cls-1" d="m2199.17,810.77c-.37-.36-.71-1.06-1.08-1.42-.35-.71-.69-1.43-.69-1.78,0-.71.35-1.42.69-1.77l1.08-2.13c.35-.36.71-1.43.71-2.14.35-.36,1.06-1.06,1.06-1.77.35-.71.35-1.42.35-2.13.37-.71.37-1.43.37-2.14.35-.7.35-1.42.35-2.49.37-.7.37-1.42.37-2.13s.35-1.42.35-2.13v-4.27c0-.7.37-1.42.37-2.13v-6.75c0-1.07-.37-1.07-.37-2.14v-3.9c0-1.07.37-1.07.37-2.14v-4.26c0-1.07-.37-1.07-.37-2.13s.37-1.07.37-2.14v-12.79c0-1.07-.37-1.07-.37-2.13s.37-1.07.37-2.14v-2.13c0-1.07-.37-1.07-.37-2.13s.37-1.07.37-2.13-.37-1.07-.37-2.14.37-1.06.37-2.13-.37-1.06-.37-2.13.37-1.07.37-2.13-.37-1.07-.37-2.14.37-1.06.37-2.13v-10.66c0-1.07-.37-1.07-.37-2.13s.37-1.07.37-2.14v-21.33c0-1.07-.37-1.07-.37-2.13s.37-1.07.37-2.14v-4.26c0-1.07-.37-1.07-.37-2.13v-4.27c0-1.07.37-1.07.37-2.13v-2.13c0-1.07-.37-1.07-.37-2.14v-2.13c0-1.06.37-1.06.37-2.13v-3.91c0-1.06-.37-1.06-.37-2.13s.37-1.07.37-2.13-.37-1.07-.37-2.13v-2.14c0-1.06.37-1.06.37-2.13s-.37-1.07-.37-2.13.37-1.07.37-2.14-.37-1.06-.37-2.13v-2.13c0-1.07.37-1.07.37-2.13s-.37-1.07-.37-2.13.37-1.07.37-2.14-.37-1.06-.37-2.13c0-.71.37-1.42.37-2.49,0-.71-.37-1.43-.37-2.13s.37-1.43.37-2.14c-.37-.7-.37-1.42-.71-2.13,0-.71.35-1.42,0-2.13,0-.71,0-1.43-.37-2.13v-2.5c-.35-.7-.35-1.42-.35-2.13-.37-.7-.71-1.42-.71-2.13-.35-.71-.35-1.43-.71-2.13-.35-.36-.71-1.07-1.06-1.78-.37-.7-.37-1.42-1.08-2.13-.35-.36-.35-1.07-.35-1.77-.35-.36,0-1.07.35-1.78,0-.35.71-1.06,1.08-1.06.71-.36,1.43-.71,1.77-.71h38.39c.71,0,1.43.36,2.14.36s1.43-.36,2.12-.36h29.87c.71,0,1.43.36,2.14.36s1.43-.36,2.12-.36h6.4c.71-.36,1.43-.36,2.14-.36h2.14c.69-.36,1.06-.71,1.77-.71s1.43,0,2.12-.36c.71,0,1.43-.35,2.14,0,.71,0,1.43.36,2.14.71.69.36,1.06.71,1.41,1.43.37.36.71,1.06,1.08,1.77,0,.71.35,1.43.35,2.13.37.71.37,1.43.71,2.14,0,.7.35,1.42.35,2.13s.37,1.42.37,2.13c.35.71.35,1.43.35,2.13.37.71.37,1.43.37,2.14.35.7.35,1.42.71,2.13,0,.71,0,1.42.35,2.13,0,.36.37,1.07.37,1.77.35.71.69,1.43.69,2.14s.37,1.42.71,2.13c0,.71,0,1.42.37,2.13,0,.71,0,1.43.35,2.14,0,.7,0,1.42.37,2.13,0,.7.35,1.42.69,2.13,0,.71,0,1.43.37,2.13v1.78c-.37.35-.71,1.06-1.06,1.42-.71.36-1.43.36-2.14.36-.35,0-1.06-.36-1.77-.71-.37-.36-1.08-.71-1.77-1.06-.71,0-1.43-.36-2.14-.71-.37-.36-1.06-.36-1.77-.71-.71,0-1.43-.36-2.14-.36-.71-.36-1.43-.7-2.12-.7-.71-.36-1.43-.36-2.14-.36-.37,0-1.06-.36-1.77-.36s-1.43-.36-2.14-.36h-6.4c-.71,0-1.43-.36-2.12-.36s-1.43.36-2.14.36c-1.06,0-1.06-.36-2.14-.36s-1.06.36-2.12.36h-2.14c-1.06,0-1.06-.36-2.14-.36s-1.06.36-2.12.36h-6.4c-1.06,0-1.06-.36-2.14-.36s-1.06.36-2.12.36-1.08-.36-2.14-.36-1.06.36-2.14.36c-.69,0-1.41,0-2.12.36-.71,0-1.06.71-1.77,1.06-.37.36-.71,1.07-1.08,1.78-.35.36-.35,1.06-.35,1.77v14.58c0,1.07-.37,1.07-.37,2.13s.37,1.07.37,2.14v14.57c0,1.07-.37,1.07-.37,2.14s.37,1.06.37,2.13c0,.71,0,1.42.35,1.77.37.71.71,1.43,1.08,1.78.71.36,1.06,1.06,1.77,1.06.71.36,1.43.71,2.12.71h16.01c.71,0,1.43-.36,2.14-.36h2.12c.71-.36,1.43-.36,2.14-.36,1.06-.36,1.77-.36,2.49-.36.71-.35,1.43-.35,2.14-.35.71-.36,1.41-.36,2.12-.71.71,0,1.43-.71,1.8-1.07.69,0,1.41-.36,2.12-.71.71-.36,1.43-.36,2.14-1.06.35-.36,1.06-.71,1.77-.71.35,0,1.06.36,1.77.71.37.36,1.06.7,1.43,1.06.35.71.35,1.43.35,2.14v37.68c0,.71-.35,1.43-.71,1.78-.35.71-.35,1.42-1.06,1.42-.71.36-1.43.71-1.77.71-.71,0-1.43-.36-2.14-.71-.35-.36-1.06-.7-1.77-1.06-.71-.36-1.06-.71-1.77-1.07s-1.43-.36-2.14-.71c-.71,0-1.41-.36-2.12-.71-.71,0-1.43,0-2.14-.35-.71,0-1.43,0-2.49-.36-.71,0-1.43-.36-2.14-.36h-4.26c-.71,0-1.43,0-2.14-.36-.69,0-1.41.36-2.12.36s-1.77-.36-2.49-.36h-9.26c-.69,0-1.41,0-2.12.36-.71.36-1.06,1.06-1.77,1.42-.37.36-.71,1.07-1.08,1.78-.35.36-.35,1.06-.35,1.77,0,1.07-.37,1.07-.37,2.13s.37,1.07.37,2.14v6.39c0,1.43-.37,1.43-.37,2.49s.37,1.07.37,2.14v2.13c0,1.07-.37,1.07-.37,2.13s.37,1.07.37,2.14v6.39c0,1.07-.37,1.07-.37,2.13s.37,1.07.37,2.14v10.66c0,1.07-.37,1.07-.37,2.13s.37,1.07.37,2.49v2.14c0,1.06-.37,1.06-.37,2.13,0,.71.37,1.42.71,1.77.37.71.71,1.43,1.08,1.78.71.36,1.06,1.06,1.77,1.42.71,0,1.43.36,2.12.36h4.28c1.06,0,1.06-.36,2.12-.36.71,0,.71.36,1.8.36h2.12c1.06,0,1.06-.36,2.14-.36h2.12c1.08,0,1.08.36,2.14.36h4.26c1.08,0,1.08-.36,2.14-.36h6.4c.71,0,1.43.36,2.12.36.71-.36,1.43-.36,2.14-.36s1.43-.36,2.14-.36h2.12c.71-.36,1.43-.36,2.14-.36.35,0,1.06-.35,1.77-.35.71-.36,1.43-.36,2.14-.71.71,0,1.41,0,2.12-.36s1.43-.36,2.14-.71c.71,0,1.06-.71,1.77-1.07.71,0,1.06-.35,1.77-.7s1.43-.71,1.8-.71c.69,0,1.41.36,2.12.71.37,0,.71.7.71,1.42.35.36.35,1.07.35,1.43-.35.71-.35,1.42-.69,2.13,0,.71-.37,1.42-.37,2.13-.35.71-.35,1.43-.71,2.14,0,.7,0,1.42-.35,2.13,0,.7-.37,1.42-.37,2.13-.35.71-.35,1.43-.35,2.13-.35.71-.35,1.43-.35,2.13-.37.71-.37,1.43-.37,2.14-.35.71-.35,1.42-.71,2.13,0,.71-.35,1.42-.35,2.13s-.37,1.07-.37,1.78c-.35.7-.71,1.42-.71,2.13-.35.71-.35,1.42-.35,2.13-.35.71-.35,1.43-.71,2.13,0,.71-.35,1.43-.35,2.14s-.37,1.42-.37,2.13c-.35.71-.35,1.42-.71,2.13-.35.36-1.06,1.07-1.77,1.43-.35.35-1.43.7-2.12.7s-1.43-.36-2.14-.36c-.71-.35-1.06-.35-1.77-.35-.71-.36-1.43-.36-2.14-.36s-1.43-.36-2.14-.36h-2.12c-.71,0-1.43-.36-2.14-.36h-10.66c-.71,0-1.43,0-2.12.36-.71,0-1.08-.36-1.8-.36h-2.12c-.71,0-1.43.36-2.14.36s-1.43-.36-2.14-.36h-59.72c-.35,0-1.06,0-1.77-.36Z"/>
  </g>
  <g>
    <path class="cls-1" d="m186.92,617.23h32.53v10.85h-20.61v20.07h16.39v10.85h-16.39v23.33h20.61v10.85h-32.53v-75.94Z"/>
    <path class="cls-1" d="m230.98,675.16v-4.34h11.29v5.2c0,5.43,2.38,7.38,6.19,7.38s6.19-1.95,6.19-7.59c0-6.29-2.4-10.31-10.21-17.14-9.97-8.78-13.24-14.97-13.24-23.65,0-11.93,6.19-18.87,17.8-18.87s17.35,6.94,17.35,19.09v3.15h-11.27v-3.9c0-5.42-2.18-7.48-5.97-7.48s-5.97,2.07-5.97,7.27c0,5.54,2.49,9.55,10.32,16.38,9.97,8.78,13.11,14.86,13.11,24.3,0,12.36-6.27,19.3-18,19.3s-17.58-6.94-17.58-19.09Z"/>
    <path class="cls-1" d="m196.24,722.16h-12.48v-10.85h36.9v10.85h-12.48v65.09h-11.94v-65.09Z"/>
    <path class="cls-1" d="m232.95,711.32h18.21c11.94,0,17.8,6.62,17.8,18.77v38.4c0,12.14-5.86,18.76-17.8,18.76h-18.21v-75.94Zm18,65.09c3.81,0,6.08-1.96,6.08-7.38v-39.49c0-5.42-2.27-7.38-6.08-7.38h-6.08v54.25h6.08Z"/>
  </g>
  <g>
    <path class="cls-1" d="m2422.03,687.59c0-10.86,3.03-17.47,11.92-26.8,9.13-9.66,11.72-15.41,11.72-22.46s-2.38-8.67-6.19-8.67-6.19,2.07-6.19,7.48v8.13h-11.27v-7.38c0-12.14,6.06-19.09,17.78-19.09s17.8,6.94,17.8,19.09c0,9.01-3.7,17.03-14.75,28.76-7.16,7.59-9.02,11.39-9.02,16.7v1.63h22.69v10.85h-34.5v-8.24Z"/>
    <path class="cls-1" d="m2471.32,677.83v-39.93c0-12.14,6.38-19.09,18.1-19.09s18.13,6.94,18.13,19.09v39.93c0,12.14-6.4,19.09-18.13,19.09s-18.1-6.94-18.1-19.09Zm24.29.76v-41.44c0-5.42-2.38-7.48-6.19-7.48s-6.19,2.07-6.19,7.48v41.44c0,5.43,2.4,7.48,6.19,7.48s6.19-2.05,6.19-7.48Z"/>
    <path class="cls-1" d="m2422.03,781.68c0-10.86,3.03-17.47,11.92-26.8,9.13-9.66,11.72-15.41,11.72-22.46s-2.38-8.67-6.19-8.67-6.19,2.07-6.19,7.48v8.13h-11.27v-7.38c0-12.14,6.06-19.09,17.78-19.09s17.8,6.94,17.8,19.09c0,9.01-3.7,17.03-14.75,28.76-7.16,7.59-9.02,11.39-9.02,16.7v1.63h22.69v10.85h-34.5v-8.24Z"/>
    <path class="cls-1" d="m2471.97,781.68c0-10.86,3.03-17.47,11.92-26.8,9.13-9.66,11.72-15.41,11.72-22.46s-2.38-8.67-6.19-8.67-6.19,2.07-6.19,7.48v8.13h-11.27v-7.38c0-12.14,6.06-19.09,17.78-19.09s17.8,6.94,17.8,19.09c0,9.01-3.7,17.03-14.75,28.76-7.16,7.59-9.02,11.39-9.02,16.7v1.63h22.69v10.85h-34.5v-8.24Z"/>
  </g>
</svg>