<?xml version="1.0" encoding="UTF-8"?>
<svg data-name="rebel-and-rose-pendant" xmlns="http://www.w3.org/2000/svg" viewBox="0 0 2041.41 2250.23">
  <rect class="cls-1" x="280.51" y="223.41" width="46.2" height="720.95"/>
  <path class="cls-1" d="m326.71,644.93h-46.2c0-81.81-100.46-201.95-262.74-253.4l13.99-44.05c184.62,58.53,294.95,197.2,294.95,297.46Z"/>
  <path class="cls-1" d="m143.37,542.59h-.03c-33.2,0-61.65-8.93-84.53-26.53C-15.21,459.03,1.34,368.89,2.09,365.1l2.39-12.45,11.81-4.65c32.93-12.97,63.47-19.57,90.82-19.57,113.13,0,148.65,109.98,151.6,168.11l.78,15.19-13.6,6.73c-2,.99-49.54,24.13-102.51,24.13Zm-97.14-156.39c-.86,20.92,2.65,63.84,40.8,93.24,14.59,11.23,33.56,16.93,56.31,16.93,26.42,0,51.93-7.59,67.32-13.27-5.49-33.63-26.42-108.43-103.56-108.43-18.07,0-38.51,3.88-60.88,11.54Z"/>
  <path class="cls-1" d="m326.71,1172.11h-46.2c0-100.26,110.33-238.92,294.95-297.46l13.99,44.05c-162.28,51.47-262.74,171.61-262.74,253.4Z"/>
  <path class="cls-1" d="m463.88,1069.82c-53,0-100.54-23.15-102.54-24.13l-13.63-6.74.81-15.17c2.95-58.16,38.47-168.16,151.63-168.16,27.32,0,57.86,6.58,90.79,19.55l11.78,4.65,2.42,12.45c.75,3.82,17.3,93.96-56.73,150.98-22.88,17.61-51.33,26.56-84.53,26.56Zm-67.32-59.52c15.39,5.7,40.89,13.29,67.32,13.29,22.76,0,41.7-5.71,56.31-16.96,38.06-29.3,41.58-72.34,40.77-93.27-22.37-7.64-42.77-11.53-60.81-11.53-77.19,0-98.1,74.83-103.59,108.46Z"/>
  <path class="cls-1" d="m303.6,328.43c-69.53,0-119.01-34.45-147.07-102.42-23.59-57.12-34.3-83.02-46.73-89.24-17.81-8.93-20.61-25.41-15.72-36.95,11.54-27.14,65.14-30.01,105.94-15.66,5.9,2.07,11.96,3.95,18.1,5.85,45.84,14.2,108.6,33.63,108.6,141.63h-46.2c0-73.92-31.91-83.81-76.06-97.46-6.74-2.1-13.39-4.16-19.83-6.43-9.22-3.26-17.84-4.95-25.35-5.65,11.63,17.64,22.58,44.2,39.85,85.93,20.94,50.72,54.1,74.18,104.48,74.18v46.23Z"/>
  <path class="cls-1" d="m303.6,328.43v-46.23c50.41,0,83.57-23.46,104.39-73.83,17.3-41.92,28.28-68.57,39.97-86.27-7.52.7-16.14,2.39-25.38,5.65-6.41,2.27-13.07,4.32-19.81,6.43-44.14,13.64-76.06,23.53-76.06,97.46h-46.2c0-108,62.75-127.43,108.6-141.63,6.14-1.89,12.23-3.77,18.1-5.85,40.83-14.38,94.4-11.51,105.94,15.66,4.89,11.54,2.09,28.02-15.66,36.94-12.53,6.23-23.26,32.23-46.77,89.21-28.13,68.02-77.61,102.47-147.13,102.47Z"/>
  <path class="cls-1" d="m400.5,120.21l-46.02-4.34c4.21-44.72-1.34-58.34-50.29-68.55-45.28,11.72-55.48,25.95-51.45,68.55l-46.02,4.34C198.88,36.98,246.06,13.82,298.17,1.19l4.89-1.19,4.92.96c74.27,14.35,99.35,46.66,92.52,119.26Z"/>
  <rect class="cls-1" x="1712.55" y="223.41" width="46.2" height="720.95"/>
  <path class="cls-1" d="m1760.9,644.93h-46.2c0-100.26,110.33-238.92,294.95-297.46l13.99,44.05c-162.28,51.45-262.74,171.59-262.74,253.4Z"/>
  <path class="cls-1" d="m1898.07,542.59c-53,0-100.51-23.14-102.51-24.13l-13.63-6.73.78-15.19c2.98-58.13,38.5-168.11,151.63-168.11,27.32,0,57.86,6.59,90.79,19.57l11.78,4.65,2.42,12.44c.75,3.8,17.3,93.95-56.73,150.96-22.88,17.61-51.33,26.55-84.53,26.55Zm-67.38-59.53c15.36,5.68,40.92,13.3,67.38,13.3,22.79,0,41.73-5.7,56.34-16.96,38.12-29.35,41.64-72.24,40.77-93.2-22.37-7.67-42.8-11.54-60.85-11.54-77.64,0-98.3,74.8-103.64,108.4Z"/>
  <path class="cls-1" d="m1758.75,1195.37h-46.2c0-81.8-100.46-201.94-262.74-253.4l13.99-44.05c184.62,58.53,294.95,197.2,294.95,297.46Z"/>
  <path class="cls-1" d="m1575.41,1093.08h0c-33.23,0-61.65-8.95-84.53-26.55-74.06-57.03-57.5-147.17-56.76-150.99l2.39-12.45,11.81-4.65c32.93-12.97,63.47-19.55,90.82-19.55,113.16,0,148.68,110,151.63,168.16l.78,15.17-13.63,6.74c-2,.98-49.51,24.13-102.51,24.13Zm-97.14-156.44c-.86,20.94,2.65,63.87,40.8,93.27,14.62,11.23,33.56,16.94,56.34,16.94,26.39,0,51.93-7.59,67.32-13.29-5.52-33.63-26.43-108.46-103.59-108.46-18.07,0-38.51,3.89-60.88,11.54Z"/>
  <path class="cls-1" d="m1735.63,328.43v-46.23c50.41,0,83.57-23.46,104.39-73.82,17.3-41.95,28.31-68.59,39.97-86.29-7.54.7-16.17,2.39-25.41,5.65-6.41,2.27-13.06,4.34-19.78,6.43-44.14,13.67-76.06,23.53-76.06,97.46h-46.2c0-108,62.75-127.43,108.57-141.63,6.15-1.89,12.2-3.76,18.11-5.85,40.92-14.38,94.46-11.5,105.97,15.66,4.89,11.54,2.09,28.02-15.69,36.94-12.5,6.23-23.2,32.17-46.65,88.99-28.19,68.24-77.67,102.69-147.22,102.69Z"/>
  <path class="cls-1" d="m1735.63,328.43c-69.52,0-119.01-34.45-147.07-102.42-23.56-57.09-34.27-83.02-46.71-89.24-17.84-8.92-20.64-25.41-15.75-36.95,11.54-27.17,65.14-30.03,105.94-15.66,5.9,2.09,11.99,3.95,18.13,5.85,45.81,14.2,108.57,33.63,108.57,141.63h-46.2c0-73.92-31.91-83.78-76.06-97.46-6.71-2.09-13.36-4.16-19.81-6.43-9.25-3.26-17.84-4.95-25.38-5.65,11.66,17.66,22.64,44.23,39.88,86,20.91,50.64,54.07,74.1,104.45,74.1v46.23Z"/>
  <path class="cls-1" d="m1638.79,120.23c-6.86-72.61,18.19-104.93,92.49-119.27l4.92-.96,4.89,1.19c52.1,12.63,99.26,35.79,91.48,118.99l-46.02-4.3c3.96-42.62-6.21-56.85-51.48-68.57-48.94,10.22-54.46,23.83-50.26,68.54l-46.02,4.37Z"/>
  <path class="cls-1" d="m1019.63,2250.23c-535.02,0-970.27-435.24-970.27-970.23v-336.13c0-12.77,10.35-23.11,23.12-23.11s23.11,10.35,23.11,23.11v336.13c0,509.49,414.52,924,924.04,924s923.98-414.51,923.98-924v-336.13c0-12.77,10.35-23.11,23.12-23.11s23.11,10.35,23.11,23.11v336.13c0,534.99-435.22,970.23-970.21,970.23Z"/>
  <path class="cls-1" d="m1019.63,2019.08c-407.57,0-739.12-331.55-739.12-739.08v-336.13h46.2v336.13c0,382.03,310.85,692.84,692.92,692.84s692.86-310.82,692.86-692.84v-336.13h46.23v336.13c0,407.53-331.57,739.08-739.09,739.08Z"/>
  <path class="cls-1" d="m794.64,304.33c-1.43-2.96,0-4.94,0-6.92v-5.91c-1.43-1.99,0-3.96,0-5.93-1.43-1.99-1.43-3.96-1.43-5.93s-1.43-3.96-1.43-5.93c-1.43-2.96-1.43-4.95-1.43-6.92s-1.43-3.96-2.86-5.93c0-1.97,0-3.94-1.43-5.93-1.43-1.97-1.43-3.94-2.86-5.93-1.43-.98-2.86-2.96-4.28-4.94-1.43-1.97-2.86-3.96-4.28-4.94-1.43-1.99-2.86-3.96-2.86-5.93,0-.99,0-2.96,1.43-4.94,1.43-1.99,4.28-1.99,7.14-2.96,1.43-.99,4.28-1.99,7.14-1.99h189.95s4.31-.98,10.03-.98c2.86,0,5.71.98,8.57.98h45.69c2.86,0,5.71.99,8.57.99,2.86.99,5.71,0,8.57,0,2.86.99,5.71.99,8.57,1.97,2.89,0,5.74-.98,8.6,0,2.86,0,4.28.99,7.14.99,2.86.99,5.71,0,8.57.99,2.86,0,5.71.98,8.57.98s5.71,1.99,8.57,1.99c2.86.98,5.71.98,8.57,1.97,2.86,0,5.71,0,8.57.98,2.86.99,4.28.99,7.14,1.99l8.57,2.96c2.86.98,4.28.98,7.14,1.97s5.71.99,8.57,1.97c2.86.99,4.28,1.99,7.17,2.96,2.86.99,4.28,1.99,7.14,2.96,2.86.99,5.71,1.99,7.14,2.96,2.86,1.99,5.71,2.96,7.14,3.96,2.86.99,5.71,1.97,7.14,2.96,2.86.99,4.28,2.96,5.71,3.94,2.86,1.99,5.71,1.99,7.14,3.96,2.86.99,4.28,2.96,5.71,3.96,2.86,1.97,5.71,2.96,7.14,3.94,1.43,1.99,2.86,3.96,5.71,4.95,1.43,1.97,2.86,2.96,4.28,4.94,1.43,1.97,2.86,2.96,5.71,4.94,1.43,1.99,2.86,2.96,4.28,4.95,1.43.98,2.86,2.95,4.28,4.94,1.43,1.97,2.86,2.96,4.28,4.94,1.43,1.97,1.43,3.96,2.86,5.93,1.43,1.97,2.89,2.96,4.31,4.94,1.43,1.99,1.43,3.96,2.86,5.93,0,1.99,1.43,2.96,2.86,4.94,1.43,1.99,1.43,3.96,1.43,5.93,1.43,1.99,1.43,3.96,2.86,5.93,0,1.99,0,3.96,1.43,5.93,0,1.99,1.43,3.96,1.43,5.93,1.43,1.99,1.43,3.96,1.43,5.93,1.43,1.99,1.43,3.96,1.43,5.93s-1.43,3.96,0,5.93c0,1.97,0,3.96,1.43,5.93,0,1.97-1.43,3.96-1.43,5.93v11.86c0,1.97,0,3.94-1.43,5.93,0,1.97,1.43,3.94,0,5.93v4.94c-1.43,1.97-2.86,3.96-2.86,5.93-1.43,1.97,0,3.96-1.43,5.93,0,1.97-1.43,3.94-2.86,5.93,0,1.97-1.43,2.96-2.86,4.94,0,1.97,0,3.96-1.43,5.93-1.43,1.97-2.86,3.96-2.86,5.93-1.43.99-2.89,2.96-2.89,4.94l-4.28,5.93c0,.99-2.86,2.96-4.28,4.94-1.43,1.99-1.43,3.96-2.86,4.95-1.43,1.97-2.86,3.94-4.28,4.94-1.43,1.97-4.28,2.96-5.71,4.94-1.43,1.99-2.86,2.96-4.28,4.95-1.43,1.97-2.86,2.96-5.71,4.94-1.43.99-2.86,2.96-4.28,4.94-1.43.99-4.28,1.97-5.71,3.96l-5.71,3.94c-1.43,1.99-4.28,2.96-5.71,4.95l-5.71,3.94c-2.86.99-4.28,2.96-5.71,4.95-1.43.98-4.28,1.97-5.71,3.94-2.86.99-4.28,1.97-7.14,3.96-1.43.98-2.86,1.97-4.28,3.94-1.43,1.99-2.86,2.96-2.86,4.95s0,3.94,1.43,5.93c1.43,2.96,0,2.96,1.43,5.93,1.43,2.96,1.43,1.97,2.86,4.94l2.86,5.93c1.43,2.96,0,2.96,1.43,5.93q1.43,2.96,2.86,4.94l2.86,5.93,2.86,5.93q0,2.96,1.43,5.93,1.43,1.97,2.86,4.94l2.86,5.93,2.86,5.93q0,1.97,1.43,4.94l2.86,5.93,2.86,5.93c1.43,1.97,0,2.96,1.43,4.94l2.86,5.93,2.86,5.93q1.43,2.96,1.43,4.95l2.86,5.93,2.86,5.91,2.86,5.93q0,1.99,1.43,4.95l2.86,5.93q0,2.96,1.43,5.93t2.86,4.94l2.86,5.93c1.43,2.96,0,2.96,1.43,5.93l2.86,5.93q1.43,1.97,1.43,4.94c1.43,2.96,2.86,2.96,4.28,5.93,0,2.96,1.43,2.96,2.86,4.94q0,2.96,1.43,5.93l2.86,5.93q0,2.96,1.43,5.93,1.43,2.96,2.89,4.94c1.43,1.99,1.43,3.96,2.86,5.93,1.43,1.99,1.43,3.96,2.86,5.93,1.43,1.97,1.43,3.96,2.86,5.93,1.43.99,2.86,2.96,2.86,4.94,1.43,1.99,1.43,3.96,2.86,5.93l4.28,5.93c0,1.99,2.86,2.96,4.28,4.94,0,1.99,1.43,3.96,2.86,5.93,1.43,1.99,2.86,2.96,4.28,4.95,1.43,1.97,2.86,3.94,4.28,4.94l4.28,5.93c1.43,1.97,2.86,2.96,4.28,4.94,1.43,1.99,2.86,2.96,5.71,4.95,1.43.98,2.86,2.95,2.86,4.94s0,2.96-1.43,4.94c-1.43,1.97-2.86,2.96-5.71,3.96-1.43.98-4.28,1.97-7.14,1.97h-167.11c-4.28,0-7.14,0-8.57-.99-4.28-.98-5.71-1.97-7.14-2.96-2.86-1.97-4.28-2.96-5.71-4.94v-6.91c1.43-.99,1.43-2.96,1.43-5.93,0-1.99,1.43-3.96,0-5.93,0-1.99,1.43-3.96,1.43-5.93-1.43-1.99-1.43-3.96-2.86-5.93,0-1.99-1.43-3.96-1.43-5.93s0-3.96-1.43-5.93c0-1.97-1.43-3.96-2.86-5.93s-1.43-3.96-1.43-5.93l-4.28-5.93c0-1.97-1.43-3.96-1.43-5.93-1.43-1.97-1.43-3.94-2.86-5.93-1.43-1.97-1.43-3.94-2.86-5.93q-1.43-1.97-2.86-4.94c-1.43-2.96,0-2.96-1.43-5.93l-2.86-5.93c-1.43-1.97-1.43-2.96-1.43-4.94l-2.86-5.93c-1.43-2.96-2.89-2.96-2.89-5.93q-1.43-1.97-2.86-4.94l-2.86-5.93c-1.43-2.96,0-2.96-1.43-5.93q-1.43-1.99-2.86-4.94c-1.43-2.96,0-2.96-1.43-5.93l-2.86-5.93c-1.43-2.96-1.43-1.99-2.86-4.95l-2.86-5.93-2.86-5.93c0-1.97,0-2.96-1.43-4.94l-2.86-5.93c-1.43-2.96,0-2.96-1.43-5.93q-1.43-2.96-2.86-4.94c-1.43-2.96,0-2.96-1.43-5.93-1.43-2.96-4.28-4.94-5.71-5.93-2.86-1.97-5.71-2.96-8.57-3.94-4.28,0-7.14-.99-9.99,0-4.28,0-7.14.98-9.99,1.97l-5.71,3.94q-4.28,1.99-7.14,2.96-4.28,1.99-7.14,3.96-4.31.99-7.17,2.96c-2.86.99-5.71,2.96-7.14,3.96-2.86.98-4.28,2.96-5.71,4.94-1.43,1.97-4.28,2.96-4.28,5.93s1.43,2.96,1.43,5.93v109.66c0,1.97,1.43,3.94,1.43,5.93,0,2.96,0,4.94,1.43,6.91,0,1.97,1.43,3.96,1.43,5.93,1.43,1.97,1.43,3.96,1.43,5.93,1.43,1.97,1.43,3.96,2.86,5.93,1.43,1.97,1.43,3.96,2.86,5.93,0,1.97,2.86,2.96,4.28,4.94,1.43,1.99,2.86,3.96,4.28,4.95,1.46,1.97,1.46,3.94,1.46,5.91,0,.99,0,2.96-1.46,4.95-1.43.98-2.86,2.96-5.71,3.94-1.43.99-4.28.99-7.14.99h-178.53c-2.86,0-5.71,0-8.57-.99-1.43-.98-2.86-2.96-4.28-3.94-1.43-1.99-2.86-3.96-2.86-4.95,0-1.97,1.43-3.94,2.86-4.94l4.28-5.93,4.28-5.93c0-.98,1.43-2.96,2.86-4.94,0-1.97,1.43-3.96,2.86-5.93,0-1.97,0-3.96,1.43-5.93v-6.91c1.43-1.99,2.86-2.96,2.86-5.93v-5.93c0-1.99,1.43-3.96,1.43-5.93s-1.43-3.96-1.43-5.93,1.43-3.96,1.43-5.93v-12.85c0-2.96-1.43-2.96-1.43-5.93s1.43-2.96,1.43-5.93v-34.58c0-2.95-1.43-2.95-1.43-5.91s1.43-2.96,1.43-5.93v-41.5c0-2.96-1.43-2.96-1.43-5.93s1.43-2.96,1.43-5.93v-65.2c0-2.96-1.43-2.96-1.43-5.93s1.43-2.96,1.43-5.93v-47.43c0-2.95-1.43-2.95-1.43-5.91s1.43-2.96,1.43-5.93-1.43-2.96-1.43-5.93,1.43-2.96,1.43-5.93v-11.86c0-2.96-1.43-2.96-1.43-5.93v-5.93c0-2.96,1.43-2.96,1.43-5.93v-29.64c0-2.96-1.43-2.96-1.43-5.93s1.43-2.96,1.43-4.94v-23.71c0-2.96-1.43-2.96-1.43-5.93s1.43-2.96,1.43-5.91v-53.35Zm201.41,13.83h-15.71c-2.89,0-5.74,0-8.6.99-2.86.99-4.28,1.97-7.14,2.96-1.43,1.97-2.86,2.96-4.28,4.94-1.43,1.97-1.43,3.96-1.43,5.93v36.55c0,2.96-1.43,2.96-1.43,5.93s1.43,2.96,1.43,5.93v108.66c0,.99,0,2.96,1.43,4.95,0,.98,1.43,2.96,2.86,3.94,1.43,1.99,2.86,2.96,5.71,3.96,1.43.99,4.28.99,7.14.99,1.43.98,4.31.98,7.17,0,1.43,0,4.28,0,5.71-.99l8.57-2.96c1.43-.99,4.28-1.97,7.14-2.96,2.86-.99,4.28-2.96,7.14-3.96,1.43-.98,4.28-1.97,5.71-2.96,2.86-1.97,5.71-2.96,7.14-3.94,2.86-.99,5.71-1.97,7.14-2.96l7.14-4.94c1.43-.99,4.28-1.99,7.14-2.96,1.43-.99,2.86-2.96,5.71-3.96,1.43-1.97,4.28-2.96,7.14-3.96,1.43-.98,2.86-2.96,4.28-3.94,2.86-1.99,4.28-2.96,5.71-4.95,2.89-.98,4.31-2.96,7.17-3.94,1.43-1.99,2.86-2.96,4.28-4.94,1.43-1.99,2.86-3.96,4.28-4.95,1.43-1.97,2.86-3.94,4.28-4.94,1.43-1.97,2.86-2.96,4.28-4.94,1.43-1.99,2.86-3.96,2.86-5.93,1.43-1.99,2.86-3.96,2.86-4.95,1.43-1.97,1.43-3.94,2.86-5.91,0-1.99,1.43-3.96,2.86-5.93,0-1.99,1.43-3.96,1.43-5.93v-5.93c1.43-1.99,0-3.96,1.43-5.93v-11.86c-1.43-1.97,0-3.96,0-5.93-1.43-1.97-2.86-3.96-2.86-5.93s0-3.96-1.43-5.93c0-1.97-1.43-3.96-2.86-5.93,0-1.97-1.43-3.94-2.86-5.93-1.43-.98-2.86-2.96-4.28-4.94-1.43-1.97-2.86-3.96-4.28-4.94-1.43-1.99-4.28-2.96-5.71-4.95l-5.71-3.94c-2.86-1.99-5.71-2.96-7.14-3.96-2.89-.99-5.74-1.97-7.17-2.96-2.86-.99-5.71-1.97-8.57-1.97l-8.57-2.96c-2.86-.99-5.71-.99-8.57-.99-2.86-.98-5.71-1.97-8.57-1.97h-8.57c-2.86,0-5.71,0-8.57-.99h-15.71Z"/>
  <path class="cls-1" d="m794.64,1191.62c-1.43-2.96,0-4.94,0-6.92v-5.91c-1.43-1.99,0-3.96,0-5.93-1.43-1.99-1.43-3.96-1.43-5.93s-1.43-3.96-1.43-5.93c-1.43-2.96-1.43-4.95-1.43-6.92s-1.43-3.96-2.86-5.93c0-1.97,0-3.94-1.43-5.93-1.43-1.97-1.43-3.94-2.86-5.93-1.43-.98-2.86-2.96-4.28-4.94-1.43-1.97-2.86-3.96-4.28-4.94-1.43-1.99-2.86-3.96-2.86-5.93,0-.99,0-2.96,1.43-4.94,1.43-1.99,4.28-1.99,7.14-2.96,1.43-.99,4.28-1.99,7.14-1.99h189.95s4.31-.98,10.03-.98c2.86,0,5.71.98,8.57.98h45.69c2.86,0,5.71.99,8.57.99,2.86.99,5.71,0,8.57,0,2.86.99,5.71.99,8.57,1.97,2.89,0,5.74-.98,8.6,0,2.86,0,4.28.99,7.14.99,2.86.99,5.71,0,8.57.99,2.86,0,5.71.98,8.57.98s5.71,1.99,8.57,1.99c2.86.98,5.71.98,8.57,1.97,2.86,0,5.71,0,8.57.98,2.86.99,4.28.99,7.14,1.99l8.57,2.96c2.86.98,4.28.98,7.14,1.97,2.86.99,5.71.99,8.57,1.97,2.86.99,4.28,1.99,7.17,2.96,2.86.99,4.28,1.99,7.14,2.96,2.86.99,5.71,1.99,7.14,2.96,2.86,1.99,5.71,2.96,7.14,3.96,2.86.99,5.71,1.97,7.14,2.96,2.86.99,4.28,2.96,5.71,3.94,2.86,1.99,5.71,1.99,7.14,3.96,2.86.99,4.28,2.96,5.71,3.96,2.86,1.97,5.71,2.96,7.14,3.94,1.43,1.99,2.86,3.96,5.71,4.95,1.43,1.97,2.86,2.96,4.28,4.94,1.43,1.97,2.86,2.96,5.71,4.94,1.43,1.99,2.86,2.96,4.28,4.95,1.43.98,2.86,2.95,4.28,4.94,1.43,1.97,2.86,2.96,4.28,4.94,1.43,1.97,1.43,3.96,2.86,5.93,1.43,1.97,2.89,2.96,4.31,4.94,1.43,1.99,1.43,3.96,2.86,5.93,0,1.99,1.43,2.96,2.86,4.94,1.43,1.99,1.43,3.96,1.43,5.93,1.43,1.99,1.43,3.96,2.86,5.93,0,1.99,0,3.96,1.43,5.93,0,1.99,1.43,3.96,1.43,5.93,1.43,1.99,1.43,3.96,1.43,5.93,1.43,1.99,1.43,3.96,1.43,5.93s-1.43,3.96,0,5.93c0,1.97,0,3.96,1.43,5.93,0,1.97-1.43,3.96-1.43,5.93v11.86c0,1.97,0,3.94-1.43,5.93,0,1.97,1.43,3.94,0,5.93v4.94c-1.43,1.97-2.86,3.96-2.86,5.93-1.43,1.97,0,3.96-1.43,5.93,0,1.97-1.43,3.94-2.86,5.93,0,1.97-1.43,2.96-2.86,4.94,0,1.97,0,3.96-1.43,5.93-1.43,1.97-2.86,3.96-2.86,5.93-1.43.99-2.89,2.96-2.89,4.94l-4.28,5.93c0,.99-2.86,2.96-4.28,4.94-1.43,1.99-1.43,3.96-2.86,4.95-1.43,1.97-2.86,3.94-4.28,4.94-1.43,1.97-4.28,2.96-5.71,4.94-1.43,1.99-2.86,2.96-4.28,4.95-1.43,1.97-2.86,2.96-5.71,4.94-1.43.99-2.86,2.96-4.28,4.94-1.43.99-4.28,1.97-5.71,3.96l-5.71,3.94c-1.43,1.99-4.28,2.96-5.71,4.95l-5.71,3.94c-2.86.99-4.28,2.96-5.71,4.95-1.43.98-4.28,1.97-5.71,3.94-2.86.99-4.28,1.97-7.14,3.96-1.43.98-2.86,1.97-4.28,3.94-1.43,1.99-2.86,2.96-2.86,4.95s0,3.94,1.43,5.93c1.43,2.96,0,2.96,1.43,5.93,1.43,2.96,1.43,1.97,2.86,4.94l2.86,5.93c1.43,2.96,0,2.96,1.43,5.93q1.43,2.96,2.86,4.94l2.86,5.93,2.86,5.93q0,2.96,1.43,5.93,1.43,1.97,2.86,4.94l2.86,5.93,2.86,5.93q0,1.97,1.43,4.94l2.86,5.93,2.86,5.93c1.43,1.97,0,2.96,1.43,4.94l2.86,5.93,2.86,5.93q1.43,2.96,1.43,4.95l2.86,5.93,2.86,5.91,2.86,5.93q0,1.99,1.43,4.95l2.86,5.93q0,2.96,1.43,5.93t2.86,4.94l2.86,5.93c1.43,2.96,0,2.96,1.43,5.93l2.86,5.93q1.43,1.97,1.43,4.94c1.43,2.96,2.86,2.96,4.28,5.93,0,2.96,1.43,2.96,2.86,4.94q0,2.96,1.43,5.93l2.86,5.93q0,2.96,1.43,5.93,1.43,2.96,2.89,4.94c1.43,1.99,1.43,3.96,2.86,5.93,1.43,1.99,1.43,3.96,2.86,5.93,1.43,1.97,1.43,3.96,2.86,5.93,1.43.99,2.86,2.96,2.86,4.94,1.43,1.99,1.43,3.96,2.86,5.93l4.28,5.93c0,1.99,2.86,2.96,4.28,4.94,0,1.99,1.43,3.96,2.86,5.93,1.43,1.99,2.86,2.96,4.28,4.95,1.43,1.97,2.86,3.94,4.28,4.94l4.28,5.93c1.43,1.97,2.86,2.96,4.28,4.94,1.43,1.99,2.86,2.96,5.71,4.95,1.43.98,2.86,2.95,2.86,4.94s0,2.96-1.43,4.94c-1.43,1.97-2.86,2.96-5.71,3.96-1.43.98-4.28,1.97-7.14,1.97h-167.11c-4.28,0-7.14,0-8.57-.99-4.28-.98-5.71-1.97-7.14-2.96-2.86-1.97-4.28-2.96-5.71-4.94v-6.91c1.43-.99,1.43-2.96,1.43-5.93,0-1.99,1.43-3.96,0-5.93,0-1.99,1.43-3.96,1.43-5.93-1.43-1.99-1.43-3.96-2.86-5.93,0-1.99-1.43-3.96-1.43-5.93s0-3.96-1.43-5.93c0-1.97-1.43-3.96-2.86-5.93s-1.43-3.96-1.43-5.93l-4.28-5.93c0-1.97-1.43-3.96-1.43-5.93-1.43-1.97-1.43-3.94-2.86-5.93-1.43-1.97-1.43-3.94-2.86-5.93q-1.43-1.97-2.86-4.94c-1.43-2.96,0-2.96-1.43-5.93l-2.86-5.93c-1.43-1.97-1.43-2.96-1.43-4.94l-2.86-5.93c-1.43-2.96-2.89-2.96-2.89-5.93q-1.43-1.97-2.86-4.94l-2.86-5.93c-1.43-2.96,0-2.96-1.43-5.93q-1.43-1.99-2.86-4.94c-1.43-2.96,0-2.96-1.43-5.93l-2.86-5.93c-1.43-2.96-1.43-1.99-2.86-4.95l-2.86-5.93-2.86-5.93c0-1.97,0-2.96-1.43-4.94l-2.86-5.93c-1.43-2.96,0-2.96-1.43-5.93q-1.43-2.96-2.86-4.94c-1.43-2.96,0-2.96-1.43-5.93-1.43-2.96-4.28-4.94-5.71-5.93-2.86-1.97-5.71-2.96-8.57-3.94-4.28,0-7.14-.99-9.99,0-4.28,0-7.14.98-9.99,1.97l-5.71,3.94q-4.28,1.99-7.14,2.96-4.28,1.99-7.14,3.96-4.31.99-7.17,2.96c-2.86.99-5.71,2.96-7.14,3.96-2.86.98-4.28,2.96-5.71,4.94-1.43,1.97-4.28,2.96-4.28,5.93s1.43,2.96,1.43,5.93v109.66c0,1.97,1.43,3.94,1.43,5.93,0,2.96,0,4.94,1.43,6.91,0,1.97,1.43,3.96,1.43,5.93,1.43,1.97,1.43,3.96,1.43,5.93,1.43,1.97,1.43,3.96,2.86,5.93,1.43,1.97,1.43,3.96,2.86,5.93,0,1.97,2.86,2.96,4.28,4.94,1.43,1.99,2.86,3.96,4.28,4.95,1.46,1.97,1.46,3.94,1.46,5.91,0,.99,0,2.96-1.46,4.95-1.43.98-2.86,2.96-5.71,3.94-1.43.99-4.28.99-7.14.99h-178.53c-2.86,0-5.71,0-8.57-.99-1.43-.98-2.86-2.96-4.28-3.94-1.43-1.99-2.86-3.96-2.86-4.95,0-1.97,1.43-3.94,2.86-4.94l4.28-5.93,4.28-5.93c0-.98,1.43-2.96,2.86-4.94,0-1.97,1.43-3.96,2.86-5.93,0-1.97,0-3.96,1.43-5.93v-6.91c1.43-1.99,2.86-2.96,2.86-5.93v-5.93c0-1.99,1.43-3.96,1.43-5.93s-1.43-3.96-1.43-5.93,1.43-3.96,1.43-5.93v-12.85c0-2.96-1.43-2.96-1.43-5.93s1.43-2.96,1.43-5.93v-34.58c0-2.95-1.43-2.95-1.43-5.91s1.43-2.96,1.43-5.93v-41.5c0-2.96-1.43-2.96-1.43-5.93s1.43-2.96,1.43-5.93v-65.2c0-2.96-1.43-2.96-1.43-5.93s1.43-2.96,1.43-5.93v-47.43c0-2.95-1.43-2.95-1.43-5.91s1.43-2.96,1.43-5.93-1.43-2.96-1.43-5.93,1.43-2.96,1.43-5.93v-11.86c0-2.96-1.43-2.96-1.43-5.93v-5.93c0-2.96,1.43-2.96,1.43-5.93v-29.64c0-2.96-1.43-2.96-1.43-5.93s1.43-2.96,1.43-4.94v-23.71c0-2.96-1.43-2.96-1.43-5.93s1.43-2.96,1.43-5.91v-53.35Zm201.41,13.83h-15.71c-2.89,0-5.74,0-8.6.99s-4.28,1.97-7.14,2.96c-1.43,1.97-2.86,2.96-4.28,4.94-1.43,1.97-1.43,3.96-1.43,5.93v36.55c0,2.96-1.43,2.96-1.43,5.93s1.43,2.96,1.43,5.93v108.66c0,.99,0,2.96,1.43,4.95,0,.98,1.43,2.96,2.86,3.94,1.43,1.99,2.86,2.96,5.71,3.96,1.43.99,4.28.99,7.14.99,1.43.98,4.31.98,7.17,0,1.43,0,4.28,0,5.71-.99l8.57-2.96c1.43-.99,4.28-1.97,7.14-2.96,2.86-.99,4.28-2.96,7.14-3.96,1.43-.98,4.28-1.97,5.71-2.96,2.86-1.97,5.71-2.96,7.14-3.94,2.86-.99,5.71-1.97,7.14-2.96l7.14-4.94c1.43-.99,4.28-1.99,7.14-2.96,1.43-.99,2.86-2.96,5.71-3.96,1.43-1.97,4.28-2.96,7.14-3.96,1.43-.98,2.86-2.96,4.28-3.94,2.86-1.99,4.28-2.96,5.71-4.95,2.89-.98,4.31-2.96,7.17-3.94,1.43-1.99,2.86-2.96,4.28-4.94,1.43-1.99,2.86-3.96,4.28-4.95,1.43-1.97,2.86-3.94,4.28-4.94,1.43-1.97,2.86-2.96,4.28-4.94,1.43-1.99,2.86-3.96,2.86-5.93,1.43-1.99,2.86-3.96,2.86-4.95,1.43-1.97,1.43-3.94,2.86-5.91,0-1.99,1.43-3.96,2.86-5.93,0-1.99,1.43-3.96,1.43-5.93v-5.93c1.43-1.99,0-3.96,1.43-5.93v-11.86c-1.43-1.97,0-3.96,0-5.93-1.43-1.97-2.86-3.96-2.86-5.93s0-3.96-1.43-5.93c0-1.97-1.43-3.96-2.86-5.93,0-1.97-1.43-3.94-2.86-5.93-1.43-.98-2.86-2.96-4.28-4.94-1.43-1.97-2.86-3.96-4.28-4.94-1.43-1.99-4.28-2.96-5.71-4.95l-5.71-3.94c-2.86-1.99-5.71-2.96-7.14-3.96-2.89-.99-5.74-1.97-7.17-2.96-2.86-.99-5.71-1.97-8.57-1.97l-8.57-2.96c-2.86-.99-5.71-.99-8.57-.99-2.86-.98-5.71-1.97-8.57-1.97h-8.57c-2.86,0-5.71,0-8.57-.99h-15.71Z"/>
  <circle class="cls-1" cx="1009.95" cy="957.71" r="59.79"/>
  <g>
    <path class="cls-1" d="m24.18,599.63h46.68v15.57h-29.58v28.8h23.53v15.57h-23.53v33.47h29.58v15.57H24.18v-108.98Z"/>
    <path class="cls-1" d="m87.4,682.77v-6.22h16.2v7.46c0,7.79,3.41,10.58,8.88,10.58s8.88-2.79,8.88-10.89c0-9.03-3.45-14.79-14.65-24.6-14.31-12.6-19-21.48-19-33.94,0-17.12,8.88-27.08,25.54-27.08s24.89,9.96,24.89,27.39v4.52h-16.17v-5.6c0-7.78-3.1-10.74-8.57-10.74s-8.57,2.96-8.57,10.43c0,7.95,3.57,13.7,14.81,23.51,14.31,12.6,18.81,21.32,18.81,34.87,0,17.74-9,27.7-25.82,27.7s-25.23-9.96-25.23-27.39Z"/>
    <path class="cls-1" d="m37.56,750.21h-17.91v-15.57h52.92v15.57h-17.88v93.41h-17.13v-93.41Z"/>
    <path class="cls-1" d="m90.23,734.65h26.13c17.13,0,25.54,9.5,25.54,26.94v55.11c0,17.43-8.41,26.93-25.54,26.93h-26.13v-108.98Zm25.82,93.41c5.46,0,8.72-2.81,8.72-10.58v-56.68c0-7.78-3.26-10.58-8.72-10.58h-8.72v77.84h8.72Z"/>
  </g>
  <g>
    <path class="cls-1" d="m1917.76,697.99c0-15.58,4.35-25.06,17.1-38.46,13.1-13.86,16.82-22.11,16.82-32.23s-3.41-12.45-8.88-12.45-8.88,2.96-8.88,10.74v11.67h-16.17v-10.58c0-17.43,8.69-27.39,25.51-27.39s25.54,9.96,25.54,27.39c0,12.93-5.31,24.44-21.17,41.27-10.27,10.89-12.94,16.34-12.94,23.96v2.34h32.56v15.57h-49.51v-11.83Z"/>
    <path class="cls-1" d="m1988.5,683.98v-57.3c0-17.43,9.16-27.39,25.98-27.39s26.01,9.96,26.01,27.39v57.3c0,17.43-9.19,27.39-26.01,27.39s-25.98-9.96-25.98-27.39Zm34.86,1.09v-59.47c0-7.78-3.41-10.74-8.88-10.74s-8.88,2.96-8.88,10.74v59.47c0,7.79,3.45,10.74,8.88,10.74s8.88-2.95,8.88-10.74Z"/>
    <path class="cls-1" d="m1917.76,833.01c0-15.58,4.35-25.06,17.1-38.46,13.1-13.86,16.82-22.11,16.82-32.23s-3.41-12.45-8.88-12.45-8.88,2.96-8.88,10.74v11.67h-16.17v-10.58c0-17.43,8.69-27.39,25.51-27.39s25.54,9.96,25.54,27.39c0,12.93-5.31,24.44-21.17,41.27-10.27,10.89-12.94,16.34-12.94,23.96v2.34h32.56v15.57h-49.51v-11.83Z"/>
    <path class="cls-1" d="m1989.43,833.01c0-15.58,4.35-25.06,17.1-38.46,13.1-13.86,16.82-22.11,16.82-32.23s-3.41-12.45-8.88-12.45-8.88,2.96-8.88,10.74v11.67h-16.17v-10.58c0-17.43,8.69-27.39,25.51-27.39s25.54,9.96,25.54,27.39c0,12.93-5.31,24.44-21.17,41.27-10.27,10.89-12.94,16.34-12.94,23.96v2.34h32.56v15.57h-49.51v-11.83Z"/>
  </g>
</svg>